<mxfile host="app.diagrams.net" modified="2024-06-28T08:56:40.729Z" agent="Mozilla/5.0 (Windows NT 10.0; Win64; x64) AppleWebKit/537.36 (KHTML, like Gecko) Chrome/126.0.0.0 Safari/537.36" etag="xzEKbxLDD94dV3JjPs_u" version="24.6.3" type="device">
  <diagram id="s-QSVBF0RlUhm7F9PiDC" name="Page-1">
    <mxGraphModel dx="5154" dy="3026" grid="1" gridSize="10" guides="1" tooltips="1" connect="1" arrows="1" fold="1" page="1" pageScale="1" pageWidth="827" pageHeight="1169" background="none" math="0" shadow="0">
      <root>
        <mxCell id="0" />
        <mxCell id="1" parent="0" />
        <mxCell id="QRmiU6R-hzra8IAD7mBf-1" value="Dash Board" style="swimlane;fontStyle=2;align=center;verticalAlign=top;childLayout=stackLayout;horizontal=1;startSize=26;horizontalStack=0;resizeParent=1;resizeLast=0;collapsible=1;marginBottom=0;rounded=0;shadow=0;strokeWidth=1;" parent="1" vertex="1">
          <mxGeometry x="-630" y="840" width="140" height="360" as="geometry">
            <mxRectangle x="230" y="140" width="160" height="26" as="alternateBounds" />
          </mxGeometry>
        </mxCell>
        <mxCell id="QRmiU6R-hzra8IAD7mBf-5" value="My Minings" style="text;align=left;verticalAlign=top;spacingLeft=4;spacingRight=4;overflow=hidden;rotatable=0;points=[[0,0.5],[1,0.5]];portConstraint=eastwest;rounded=0;shadow=0;html=0;" parent="QRmiU6R-hzra8IAD7mBf-1" vertex="1">
          <mxGeometry y="26" width="140" height="34" as="geometry" />
        </mxCell>
        <mxCell id="QRmiU6R-hzra8IAD7mBf-13" value="Contacts" style="text;align=left;verticalAlign=top;spacingLeft=4;spacingRight=4;overflow=hidden;rotatable=0;points=[[0,0.5],[1,0.5]];portConstraint=eastwest;rounded=0;shadow=0;html=0;" parent="QRmiU6R-hzra8IAD7mBf-1" vertex="1">
          <mxGeometry y="60" width="140" height="32" as="geometry" />
        </mxCell>
        <mxCell id="QRmiU6R-hzra8IAD7mBf-11" value="My Leads" style="text;align=left;verticalAlign=top;spacingLeft=4;spacingRight=4;overflow=hidden;rotatable=0;points=[[0,0.5],[1,0.5]];portConstraint=eastwest;rounded=0;shadow=0;html=0;" parent="QRmiU6R-hzra8IAD7mBf-1" vertex="1">
          <mxGeometry y="92" width="140" height="30" as="geometry" />
        </mxCell>
        <mxCell id="QRmiU6R-hzra8IAD7mBf-4" value="My opportunities" style="text;align=left;verticalAlign=top;spacingLeft=4;spacingRight=4;overflow=hidden;rotatable=0;points=[[0,0.5],[1,0.5]];portConstraint=eastwest;rounded=0;shadow=0;html=0;" parent="QRmiU6R-hzra8IAD7mBf-1" vertex="1">
          <mxGeometry y="122" width="140" height="28" as="geometry" />
        </mxCell>
        <mxCell id="QRmiU6R-hzra8IAD7mBf-14" value="Quotes" style="text;align=left;verticalAlign=top;spacingLeft=4;spacingRight=4;overflow=hidden;rotatable=0;points=[[0,0.5],[1,0.5]];portConstraint=eastwest;rounded=0;shadow=0;html=0;" parent="QRmiU6R-hzra8IAD7mBf-1" vertex="1">
          <mxGeometry y="150" width="140" height="30" as="geometry" />
        </mxCell>
        <mxCell id="QRmiU6R-hzra8IAD7mBf-353" value="Calendar" style="text;align=left;verticalAlign=top;spacingLeft=4;spacingRight=4;overflow=hidden;rotatable=0;points=[[0,0.5],[1,0.5]];portConstraint=eastwest;rounded=0;shadow=0;html=0;" parent="QRmiU6R-hzra8IAD7mBf-1" vertex="1">
          <mxGeometry y="180" width="140" height="30" as="geometry" />
        </mxCell>
        <mxCell id="QRmiU6R-hzra8IAD7mBf-6" value="" style="line;html=1;strokeWidth=1;align=left;verticalAlign=middle;spacingTop=-1;spacingLeft=3;spacingRight=3;rotatable=0;labelPosition=right;points=[];portConstraint=eastwest;" parent="QRmiU6R-hzra8IAD7mBf-1" vertex="1">
          <mxGeometry y="210" width="140" height="20" as="geometry" />
        </mxCell>
        <mxCell id="QRmiU6R-hzra8IAD7mBf-2" value="My meetingsÂ " style="text;align=left;verticalAlign=top;spacingLeft=4;spacingRight=4;overflow=hidden;rotatable=0;points=[[0,0.5],[1,0.5]];portConstraint=eastwest;rounded=0;shadow=0;html=0;" parent="QRmiU6R-hzra8IAD7mBf-1" vertex="1">
          <mxGeometry y="230" width="140" height="26" as="geometry" />
        </mxCell>
        <mxCell id="QRmiU6R-hzra8IAD7mBf-15" value="My calls" style="text;align=left;verticalAlign=top;spacingLeft=4;spacingRight=4;overflow=hidden;rotatable=0;points=[[0,0.5],[1,0.5]];portConstraint=eastwest;rounded=0;shadow=0;html=0;" parent="QRmiU6R-hzra8IAD7mBf-1" vertex="1">
          <mxGeometry y="256" width="140" height="26" as="geometry" />
        </mxCell>
        <mxCell id="HYqggA-Efa8sCDrEcygq-31" value="" style="line;html=1;strokeWidth=1;align=left;verticalAlign=middle;spacingTop=-1;spacingLeft=3;spacingRight=3;rotatable=0;labelPosition=right;points=[];portConstraint=eastwest;" parent="QRmiU6R-hzra8IAD7mBf-1" vertex="1">
          <mxGeometry y="282" width="140" height="20" as="geometry" />
        </mxCell>
        <mxCell id="HYqggA-Efa8sCDrEcygq-32" value="User Profile" style="text;align=left;verticalAlign=top;spacingLeft=4;spacingRight=4;overflow=hidden;rotatable=0;points=[[0,0.5],[1,0.5]];portConstraint=eastwest;rounded=0;shadow=0;html=0;" parent="QRmiU6R-hzra8IAD7mBf-1" vertex="1">
          <mxGeometry y="302" width="140" height="26" as="geometry" />
        </mxCell>
        <mxCell id="QRmiU6R-hzra8IAD7mBf-16" value="MInings" style="swimlane;fontStyle=2;align=center;verticalAlign=top;childLayout=stackLayout;horizontal=1;startSize=26;horizontalStack=0;resizeParent=1;resizeLast=0;collapsible=1;marginBottom=0;rounded=0;shadow=0;strokeWidth=1;" parent="1" vertex="1">
          <mxGeometry x="-340" y="-220" width="140" height="130" as="geometry">
            <mxRectangle x="230" y="140" width="160" height="26" as="alternateBounds" />
          </mxGeometry>
        </mxCell>
        <mxCell id="QRmiU6R-hzra8IAD7mBf-17" value="Create" style="text;align=left;verticalAlign=top;spacingLeft=4;spacingRight=4;overflow=hidden;rotatable=0;points=[[0,0.5],[1,0.5]];portConstraint=eastwest;rounded=0;shadow=0;html=0;" parent="QRmiU6R-hzra8IAD7mBf-16" vertex="1">
          <mxGeometry y="26" width="140" height="34" as="geometry" />
        </mxCell>
        <mxCell id="QRmiU6R-hzra8IAD7mBf-18" value="View" style="text;align=left;verticalAlign=top;spacingLeft=4;spacingRight=4;overflow=hidden;rotatable=0;points=[[0,0.5],[1,0.5]];portConstraint=eastwest;rounded=0;shadow=0;html=0;" parent="QRmiU6R-hzra8IAD7mBf-16" vertex="1">
          <mxGeometry y="60" width="140" height="32" as="geometry" />
        </mxCell>
        <mxCell id="QRmiU6R-hzra8IAD7mBf-19" value="Import" style="text;align=left;verticalAlign=top;spacingLeft=4;spacingRight=4;overflow=hidden;rotatable=0;points=[[0,0.5],[1,0.5]];portConstraint=eastwest;rounded=0;shadow=0;html=0;" parent="QRmiU6R-hzra8IAD7mBf-16" vertex="1">
          <mxGeometry y="92" width="140" height="28" as="geometry" />
        </mxCell>
        <mxCell id="QRmiU6R-hzra8IAD7mBf-27" value="Create Mining" style="swimlane;fontStyle=2;align=center;verticalAlign=top;childLayout=stackLayout;horizontal=1;startSize=26;horizontalStack=0;resizeParent=1;resizeLast=0;collapsible=1;marginBottom=0;rounded=0;shadow=0;strokeWidth=1;" parent="1" vertex="1">
          <mxGeometry x="40" y="-550" width="140" height="560" as="geometry">
            <mxRectangle x="230" y="140" width="160" height="26" as="alternateBounds" />
          </mxGeometry>
        </mxCell>
        <mxCell id="QRmiU6R-hzra8IAD7mBf-29" value="Name" style="text;align=left;verticalAlign=top;spacingLeft=4;spacingRight=4;overflow=hidden;rotatable=0;points=[[0,0.5],[1,0.5]];portConstraint=eastwest;rounded=0;shadow=0;html=0;" parent="QRmiU6R-hzra8IAD7mBf-27" vertex="1">
          <mxGeometry y="26" width="140" height="32" as="geometry" />
        </mxCell>
        <mxCell id="QRmiU6R-hzra8IAD7mBf-31" value="Email address" style="text;align=left;verticalAlign=top;spacingLeft=4;spacingRight=4;overflow=hidden;rotatable=0;points=[[0,0.5],[1,0.5]];portConstraint=eastwest;rounded=0;shadow=0;html=0;" parent="QRmiU6R-hzra8IAD7mBf-27" vertex="1">
          <mxGeometry y="58" width="140" height="32" as="geometry" />
        </mxCell>
        <mxCell id="QRmiU6R-hzra8IAD7mBf-32" value="Office phone" style="text;align=left;verticalAlign=top;spacingLeft=4;spacingRight=4;overflow=hidden;rotatable=0;points=[[0,0.5],[1,0.5]];portConstraint=eastwest;rounded=0;shadow=0;html=0;" parent="QRmiU6R-hzra8IAD7mBf-27" vertex="1">
          <mxGeometry y="90" width="140" height="32" as="geometry" />
        </mxCell>
        <mxCell id="QRmiU6R-hzra8IAD7mBf-33" value="Address" style="text;align=left;verticalAlign=top;spacingLeft=4;spacingRight=4;overflow=hidden;rotatable=0;points=[[0,0.5],[1,0.5]];portConstraint=eastwest;rounded=0;shadow=0;html=0;" parent="QRmiU6R-hzra8IAD7mBf-27" vertex="1">
          <mxGeometry y="122" width="140" height="32" as="geometry" />
        </mxCell>
        <mxCell id="QRmiU6R-hzra8IAD7mBf-34" value="Company revenue" style="text;align=left;verticalAlign=top;spacingLeft=4;spacingRight=4;overflow=hidden;rotatable=0;points=[[0,0.5],[1,0.5]];portConstraint=eastwest;rounded=0;shadow=0;html=0;" parent="QRmiU6R-hzra8IAD7mBf-27" vertex="1">
          <mxGeometry y="154" width="140" height="32" as="geometry" />
        </mxCell>
        <mxCell id="QRmiU6R-hzra8IAD7mBf-35" value="Company emp size&#xa;" style="text;align=left;verticalAlign=top;spacingLeft=4;spacingRight=4;overflow=hidden;rotatable=0;points=[[0,0.5],[1,0.5]];portConstraint=eastwest;rounded=0;shadow=0;html=0;" parent="QRmiU6R-hzra8IAD7mBf-27" vertex="1">
          <mxGeometry y="186" width="140" height="32" as="geometry" />
        </mxCell>
        <mxCell id="QRmiU6R-hzra8IAD7mBf-36" value="Customer offering" style="text;align=left;verticalAlign=top;spacingLeft=4;spacingRight=4;overflow=hidden;rotatable=0;points=[[0,0.5],[1,0.5]];portConstraint=eastwest;rounded=0;shadow=0;html=0;" parent="QRmiU6R-hzra8IAD7mBf-27" vertex="1">
          <mxGeometry y="218" width="140" height="32" as="geometry" />
        </mxCell>
        <mxCell id="QRmiU6R-hzra8IAD7mBf-37" value="Competition of AT" style="text;align=left;verticalAlign=top;spacingLeft=4;spacingRight=4;overflow=hidden;rotatable=0;points=[[0,0.5],[1,0.5]];portConstraint=eastwest;rounded=0;shadow=0;html=0;" parent="QRmiU6R-hzra8IAD7mBf-27" vertex="1">
          <mxGeometry y="250" width="140" height="32" as="geometry" />
        </mxCell>
        <mxCell id="QRmiU6R-hzra8IAD7mBf-38" value="Stock market registered&#xa;" style="text;align=left;verticalAlign=top;spacingLeft=4;spacingRight=4;overflow=hidden;rotatable=0;points=[[0,0.5],[1,0.5]];portConstraint=eastwest;rounded=0;shadow=0;html=0;" parent="QRmiU6R-hzra8IAD7mBf-27" vertex="1">
          <mxGeometry y="282" width="140" height="32" as="geometry" />
        </mxCell>
        <mxCell id="QRmiU6R-hzra8IAD7mBf-39" value="Influncer (Y/N )" style="text;align=left;verticalAlign=top;spacingLeft=4;spacingRight=4;overflow=hidden;rotatable=0;points=[[0,0.5],[1,0.5]];portConstraint=eastwest;rounded=0;shadow=0;html=0;" parent="QRmiU6R-hzra8IAD7mBf-27" vertex="1">
          <mxGeometry y="314" width="140" height="32" as="geometry" />
        </mxCell>
        <mxCell id="QRmiU6R-hzra8IAD7mBf-40" value="Desition maker (Y/N)&#xa;" style="text;align=left;verticalAlign=top;spacingLeft=4;spacingRight=4;overflow=hidden;rotatable=0;points=[[0,0.5],[1,0.5]];portConstraint=eastwest;rounded=0;shadow=0;html=0;" parent="QRmiU6R-hzra8IAD7mBf-27" vertex="1">
          <mxGeometry y="346" width="140" height="32" as="geometry" />
        </mxCell>
        <mxCell id="QRmiU6R-hzra8IAD7mBf-41" value="IT spending budget&#xa;" style="text;align=left;verticalAlign=top;spacingLeft=4;spacingRight=4;overflow=hidden;rotatable=0;points=[[0,0.5],[1,0.5]];portConstraint=eastwest;rounded=0;shadow=0;html=0;" parent="QRmiU6R-hzra8IAD7mBf-27" vertex="1">
          <mxGeometry y="378" width="140" height="32" as="geometry" />
        </mxCell>
        <mxCell id="QRmiU6R-hzra8IAD7mBf-42" value="IT spending budget&#xa;" style="text;align=left;verticalAlign=top;spacingLeft=4;spacingRight=4;overflow=hidden;rotatable=0;points=[[0,0.5],[1,0.5]];portConstraint=eastwest;rounded=0;shadow=0;html=0;" parent="QRmiU6R-hzra8IAD7mBf-27" vertex="1">
          <mxGeometry y="410" width="140" height="32" as="geometry" />
        </mxCell>
        <mxCell id="QRmiU6R-hzra8IAD7mBf-43" value="Source of data mining" style="text;align=left;verticalAlign=top;spacingLeft=4;spacingRight=4;overflow=hidden;rotatable=0;points=[[0,0.5],[1,0.5]];portConstraint=eastwest;rounded=0;shadow=0;html=0;" parent="QRmiU6R-hzra8IAD7mBf-27" vertex="1">
          <mxGeometry y="442" width="140" height="32" as="geometry" />
        </mxCell>
        <mxCell id="QRmiU6R-hzra8IAD7mBf-45" value="" style="line;html=1;strokeWidth=1;align=left;verticalAlign=middle;spacingTop=-1;spacingLeft=3;spacingRight=3;rotatable=0;labelPosition=right;points=[];portConstraint=eastwest;" parent="QRmiU6R-hzra8IAD7mBf-27" vertex="1">
          <mxGeometry y="474" width="140" height="20" as="geometry" />
        </mxCell>
        <mxCell id="QRmiU6R-hzra8IAD7mBf-47" value="assigned emp" style="text;align=left;verticalAlign=top;spacingLeft=4;spacingRight=4;overflow=hidden;rotatable=0;points=[[0,0.5],[1,0.5]];portConstraint=eastwest;rounded=0;shadow=0;html=0;" parent="QRmiU6R-hzra8IAD7mBf-27" vertex="1">
          <mxGeometry y="494" width="140" height="32" as="geometry" />
        </mxCell>
        <mxCell id="QRmiU6R-hzra8IAD7mBf-48" value="View Minings" style="swimlane;fontStyle=2;align=center;verticalAlign=top;childLayout=stackLayout;horizontal=1;startSize=26;horizontalStack=0;resizeParent=1;resizeLast=0;collapsible=1;marginBottom=0;rounded=0;shadow=0;strokeWidth=1;" parent="1" vertex="1">
          <mxGeometry x="40" y="90" width="140" height="70" as="geometry">
            <mxRectangle x="230" y="140" width="160" height="26" as="alternateBounds" />
          </mxGeometry>
        </mxCell>
        <mxCell id="QRmiU6R-hzra8IAD7mBf-49" value="All Minings" style="text;align=left;verticalAlign=top;spacingLeft=4;spacingRight=4;overflow=hidden;rotatable=0;points=[[0,0.5],[1,0.5]];portConstraint=eastwest;rounded=0;shadow=0;html=0;" parent="QRmiU6R-hzra8IAD7mBf-48" vertex="1">
          <mxGeometry y="26" width="140" height="34" as="geometry" />
        </mxCell>
        <mxCell id="QRmiU6R-hzra8IAD7mBf-54" value="Detail view" style="swimlane;fontStyle=2;align=center;verticalAlign=top;childLayout=stackLayout;horizontal=1;startSize=26;horizontalStack=0;resizeParent=1;resizeLast=0;collapsible=1;marginBottom=0;rounded=0;shadow=0;strokeWidth=1;" parent="1" vertex="1">
          <mxGeometry x="360" y="-100" width="140" height="474" as="geometry">
            <mxRectangle x="230" y="140" width="160" height="26" as="alternateBounds" />
          </mxGeometry>
        </mxCell>
        <mxCell id="QRmiU6R-hzra8IAD7mBf-55" value="Name" style="text;align=left;verticalAlign=top;spacingLeft=4;spacingRight=4;overflow=hidden;rotatable=0;points=[[0,0.5],[1,0.5]];portConstraint=eastwest;rounded=0;shadow=0;html=0;" parent="QRmiU6R-hzra8IAD7mBf-54" vertex="1">
          <mxGeometry y="26" width="140" height="32" as="geometry" />
        </mxCell>
        <mxCell id="QRmiU6R-hzra8IAD7mBf-56" value="Email address" style="text;align=left;verticalAlign=top;spacingLeft=4;spacingRight=4;overflow=hidden;rotatable=0;points=[[0,0.5],[1,0.5]];portConstraint=eastwest;rounded=0;shadow=0;html=0;" parent="QRmiU6R-hzra8IAD7mBf-54" vertex="1">
          <mxGeometry y="58" width="140" height="32" as="geometry" />
        </mxCell>
        <mxCell id="QRmiU6R-hzra8IAD7mBf-57" value="Office phone" style="text;align=left;verticalAlign=top;spacingLeft=4;spacingRight=4;overflow=hidden;rotatable=0;points=[[0,0.5],[1,0.5]];portConstraint=eastwest;rounded=0;shadow=0;html=0;" parent="QRmiU6R-hzra8IAD7mBf-54" vertex="1">
          <mxGeometry y="90" width="140" height="32" as="geometry" />
        </mxCell>
        <mxCell id="QRmiU6R-hzra8IAD7mBf-58" value="Address" style="text;align=left;verticalAlign=top;spacingLeft=4;spacingRight=4;overflow=hidden;rotatable=0;points=[[0,0.5],[1,0.5]];portConstraint=eastwest;rounded=0;shadow=0;html=0;" parent="QRmiU6R-hzra8IAD7mBf-54" vertex="1">
          <mxGeometry y="122" width="140" height="32" as="geometry" />
        </mxCell>
        <mxCell id="QRmiU6R-hzra8IAD7mBf-59" value="Company revenue" style="text;align=left;verticalAlign=top;spacingLeft=4;spacingRight=4;overflow=hidden;rotatable=0;points=[[0,0.5],[1,0.5]];portConstraint=eastwest;rounded=0;shadow=0;html=0;" parent="QRmiU6R-hzra8IAD7mBf-54" vertex="1">
          <mxGeometry y="154" width="140" height="32" as="geometry" />
        </mxCell>
        <mxCell id="QRmiU6R-hzra8IAD7mBf-60" value="Company emp size&#xa;" style="text;align=left;verticalAlign=top;spacingLeft=4;spacingRight=4;overflow=hidden;rotatable=0;points=[[0,0.5],[1,0.5]];portConstraint=eastwest;rounded=0;shadow=0;html=0;" parent="QRmiU6R-hzra8IAD7mBf-54" vertex="1">
          <mxGeometry y="186" width="140" height="32" as="geometry" />
        </mxCell>
        <mxCell id="QRmiU6R-hzra8IAD7mBf-61" value="Customer offering" style="text;align=left;verticalAlign=top;spacingLeft=4;spacingRight=4;overflow=hidden;rotatable=0;points=[[0,0.5],[1,0.5]];portConstraint=eastwest;rounded=0;shadow=0;html=0;" parent="QRmiU6R-hzra8IAD7mBf-54" vertex="1">
          <mxGeometry y="218" width="140" height="32" as="geometry" />
        </mxCell>
        <mxCell id="QRmiU6R-hzra8IAD7mBf-62" value="Competition of AT" style="text;align=left;verticalAlign=top;spacingLeft=4;spacingRight=4;overflow=hidden;rotatable=0;points=[[0,0.5],[1,0.5]];portConstraint=eastwest;rounded=0;shadow=0;html=0;" parent="QRmiU6R-hzra8IAD7mBf-54" vertex="1">
          <mxGeometry y="250" width="140" height="32" as="geometry" />
        </mxCell>
        <mxCell id="QRmiU6R-hzra8IAD7mBf-63" value="Stock market registered&#xa;" style="text;align=left;verticalAlign=top;spacingLeft=4;spacingRight=4;overflow=hidden;rotatable=0;points=[[0,0.5],[1,0.5]];portConstraint=eastwest;rounded=0;shadow=0;html=0;" parent="QRmiU6R-hzra8IAD7mBf-54" vertex="1">
          <mxGeometry y="282" width="140" height="32" as="geometry" />
        </mxCell>
        <mxCell id="QRmiU6R-hzra8IAD7mBf-64" value="Influncer (Y/N )" style="text;align=left;verticalAlign=top;spacingLeft=4;spacingRight=4;overflow=hidden;rotatable=0;points=[[0,0.5],[1,0.5]];portConstraint=eastwest;rounded=0;shadow=0;html=0;" parent="QRmiU6R-hzra8IAD7mBf-54" vertex="1">
          <mxGeometry y="314" width="140" height="32" as="geometry" />
        </mxCell>
        <mxCell id="QRmiU6R-hzra8IAD7mBf-65" value="Desition maker (Y/N)&#xa;" style="text;align=left;verticalAlign=top;spacingLeft=4;spacingRight=4;overflow=hidden;rotatable=0;points=[[0,0.5],[1,0.5]];portConstraint=eastwest;rounded=0;shadow=0;html=0;" parent="QRmiU6R-hzra8IAD7mBf-54" vertex="1">
          <mxGeometry y="346" width="140" height="32" as="geometry" />
        </mxCell>
        <mxCell id="QRmiU6R-hzra8IAD7mBf-66" value="IT spending budget&#xa;" style="text;align=left;verticalAlign=top;spacingLeft=4;spacingRight=4;overflow=hidden;rotatable=0;points=[[0,0.5],[1,0.5]];portConstraint=eastwest;rounded=0;shadow=0;html=0;" parent="QRmiU6R-hzra8IAD7mBf-54" vertex="1">
          <mxGeometry y="378" width="140" height="32" as="geometry" />
        </mxCell>
        <mxCell id="QRmiU6R-hzra8IAD7mBf-67" value="IT spending budget&#xa;" style="text;align=left;verticalAlign=top;spacingLeft=4;spacingRight=4;overflow=hidden;rotatable=0;points=[[0,0.5],[1,0.5]];portConstraint=eastwest;rounded=0;shadow=0;html=0;" parent="QRmiU6R-hzra8IAD7mBf-54" vertex="1">
          <mxGeometry y="410" width="140" height="32" as="geometry" />
        </mxCell>
        <mxCell id="QRmiU6R-hzra8IAD7mBf-68" value="Source of data mining" style="text;align=left;verticalAlign=top;spacingLeft=4;spacingRight=4;overflow=hidden;rotatable=0;points=[[0,0.5],[1,0.5]];portConstraint=eastwest;rounded=0;shadow=0;html=0;" parent="QRmiU6R-hzra8IAD7mBf-54" vertex="1">
          <mxGeometry y="442" width="140" height="32" as="geometry" />
        </mxCell>
        <mxCell id="QRmiU6R-hzra8IAD7mBf-80" value="Contacts" style="swimlane;fontStyle=2;align=center;verticalAlign=top;childLayout=stackLayout;horizontal=1;startSize=26;horizontalStack=0;resizeParent=1;resizeLast=0;collapsible=1;marginBottom=0;rounded=0;shadow=0;strokeWidth=1;" parent="1" vertex="1">
          <mxGeometry x="-340" y="430" width="140" height="130" as="geometry">
            <mxRectangle x="230" y="140" width="160" height="26" as="alternateBounds" />
          </mxGeometry>
        </mxCell>
        <mxCell id="QRmiU6R-hzra8IAD7mBf-81" value="Create" style="text;align=left;verticalAlign=top;spacingLeft=4;spacingRight=4;overflow=hidden;rotatable=0;points=[[0,0.5],[1,0.5]];portConstraint=eastwest;rounded=0;shadow=0;html=0;" parent="QRmiU6R-hzra8IAD7mBf-80" vertex="1">
          <mxGeometry y="26" width="140" height="34" as="geometry" />
        </mxCell>
        <mxCell id="QRmiU6R-hzra8IAD7mBf-82" value="View" style="text;align=left;verticalAlign=top;spacingLeft=4;spacingRight=4;overflow=hidden;rotatable=0;points=[[0,0.5],[1,0.5]];portConstraint=eastwest;rounded=0;shadow=0;html=0;" parent="QRmiU6R-hzra8IAD7mBf-80" vertex="1">
          <mxGeometry y="60" width="140" height="32" as="geometry" />
        </mxCell>
        <mxCell id="QRmiU6R-hzra8IAD7mBf-83" value="Import" style="text;align=left;verticalAlign=top;spacingLeft=4;spacingRight=4;overflow=hidden;rotatable=0;points=[[0,0.5],[1,0.5]];portConstraint=eastwest;rounded=0;shadow=0;html=0;" parent="QRmiU6R-hzra8IAD7mBf-80" vertex="1">
          <mxGeometry y="92" width="140" height="28" as="geometry" />
        </mxCell>
        <mxCell id="QRmiU6R-hzra8IAD7mBf-84" value="Create Contacts" style="swimlane;fontStyle=2;align=center;verticalAlign=top;childLayout=stackLayout;horizontal=1;startSize=26;horizontalStack=0;resizeParent=1;resizeLast=0;collapsible=1;marginBottom=0;rounded=0;shadow=0;strokeWidth=1;" parent="1" vertex="1">
          <mxGeometry x="40" y="400" width="140" height="190" as="geometry">
            <mxRectangle x="230" y="140" width="160" height="26" as="alternateBounds" />
          </mxGeometry>
        </mxCell>
        <mxCell id="QRmiU6R-hzra8IAD7mBf-85" value="name (First - last name)" style="text;align=left;verticalAlign=top;spacingLeft=4;spacingRight=4;overflow=hidden;rotatable=0;points=[[0,0.5],[1,0.5]];portConstraint=eastwest;rounded=0;shadow=0;html=0;" parent="QRmiU6R-hzra8IAD7mBf-84" vertex="1">
          <mxGeometry y="26" width="140" height="34" as="geometry" />
        </mxCell>
        <mxCell id="QRmiU6R-hzra8IAD7mBf-91" value="Email" style="text;align=left;verticalAlign=top;spacingLeft=4;spacingRight=4;overflow=hidden;rotatable=0;points=[[0,0.5],[1,0.5]];portConstraint=eastwest;rounded=0;shadow=0;html=0;" parent="QRmiU6R-hzra8IAD7mBf-84" vertex="1">
          <mxGeometry y="60" width="140" height="32" as="geometry" />
        </mxCell>
        <mxCell id="QRmiU6R-hzra8IAD7mBf-86" value="Job tile" style="text;align=left;verticalAlign=top;spacingLeft=4;spacingRight=4;overflow=hidden;rotatable=0;points=[[0,0.5],[1,0.5]];portConstraint=eastwest;rounded=0;shadow=0;html=0;" parent="QRmiU6R-hzra8IAD7mBf-84" vertex="1">
          <mxGeometry y="92" width="140" height="32" as="geometry" />
        </mxCell>
        <mxCell id="QRmiU6R-hzra8IAD7mBf-89" value="Address" style="text;align=left;verticalAlign=top;spacingLeft=4;spacingRight=4;overflow=hidden;rotatable=0;points=[[0,0.5],[1,0.5]];portConstraint=eastwest;rounded=0;shadow=0;html=0;" parent="QRmiU6R-hzra8IAD7mBf-84" vertex="1">
          <mxGeometry y="124" width="140" height="32" as="geometry" />
        </mxCell>
        <mxCell id="QRmiU6R-hzra8IAD7mBf-90" value="Contact number" style="text;align=left;verticalAlign=top;spacingLeft=4;spacingRight=4;overflow=hidden;rotatable=0;points=[[0,0.5],[1,0.5]];portConstraint=eastwest;rounded=0;shadow=0;html=0;" parent="QRmiU6R-hzra8IAD7mBf-84" vertex="1">
          <mxGeometry y="156" width="140" height="32" as="geometry" />
        </mxCell>
        <mxCell id="QRmiU6R-hzra8IAD7mBf-92" value="view Contact" style="swimlane;fontStyle=2;align=center;verticalAlign=top;childLayout=stackLayout;horizontal=1;startSize=26;horizontalStack=0;resizeParent=1;resizeLast=0;collapsible=1;marginBottom=0;rounded=0;shadow=0;strokeWidth=1;" parent="1" vertex="1">
          <mxGeometry x="360" y="580" width="140" height="190" as="geometry">
            <mxRectangle x="230" y="140" width="160" height="26" as="alternateBounds" />
          </mxGeometry>
        </mxCell>
        <mxCell id="QRmiU6R-hzra8IAD7mBf-93" value="name (First - last name)" style="text;align=left;verticalAlign=top;spacingLeft=4;spacingRight=4;overflow=hidden;rotatable=0;points=[[0,0.5],[1,0.5]];portConstraint=eastwest;rounded=0;shadow=0;html=0;" parent="QRmiU6R-hzra8IAD7mBf-92" vertex="1">
          <mxGeometry y="26" width="140" height="34" as="geometry" />
        </mxCell>
        <mxCell id="QRmiU6R-hzra8IAD7mBf-94" value="Email" style="text;align=left;verticalAlign=top;spacingLeft=4;spacingRight=4;overflow=hidden;rotatable=0;points=[[0,0.5],[1,0.5]];portConstraint=eastwest;rounded=0;shadow=0;html=0;" parent="QRmiU6R-hzra8IAD7mBf-92" vertex="1">
          <mxGeometry y="60" width="140" height="32" as="geometry" />
        </mxCell>
        <mxCell id="QRmiU6R-hzra8IAD7mBf-95" value="Job tile" style="text;align=left;verticalAlign=top;spacingLeft=4;spacingRight=4;overflow=hidden;rotatable=0;points=[[0,0.5],[1,0.5]];portConstraint=eastwest;rounded=0;shadow=0;html=0;" parent="QRmiU6R-hzra8IAD7mBf-92" vertex="1">
          <mxGeometry y="92" width="140" height="32" as="geometry" />
        </mxCell>
        <mxCell id="QRmiU6R-hzra8IAD7mBf-96" value="Address" style="text;align=left;verticalAlign=top;spacingLeft=4;spacingRight=4;overflow=hidden;rotatable=0;points=[[0,0.5],[1,0.5]];portConstraint=eastwest;rounded=0;shadow=0;html=0;" parent="QRmiU6R-hzra8IAD7mBf-92" vertex="1">
          <mxGeometry y="124" width="140" height="32" as="geometry" />
        </mxCell>
        <mxCell id="QRmiU6R-hzra8IAD7mBf-97" value="Contact number" style="text;align=left;verticalAlign=top;spacingLeft=4;spacingRight=4;overflow=hidden;rotatable=0;points=[[0,0.5],[1,0.5]];portConstraint=eastwest;rounded=0;shadow=0;html=0;" parent="QRmiU6R-hzra8IAD7mBf-92" vertex="1">
          <mxGeometry y="156" width="140" height="32" as="geometry" />
        </mxCell>
        <mxCell id="QRmiU6R-hzra8IAD7mBf-98" value="view Contacts" style="swimlane;fontStyle=2;align=center;verticalAlign=top;childLayout=stackLayout;horizontal=1;startSize=26;horizontalStack=0;resizeParent=1;resizeLast=0;collapsible=1;marginBottom=0;rounded=0;shadow=0;strokeWidth=1;" parent="1" vertex="1">
          <mxGeometry x="40" y="650" width="140" height="60" as="geometry">
            <mxRectangle x="230" y="140" width="160" height="26" as="alternateBounds" />
          </mxGeometry>
        </mxCell>
        <mxCell id="QRmiU6R-hzra8IAD7mBf-101" value="All contacts" style="text;align=left;verticalAlign=top;spacingLeft=4;spacingRight=4;overflow=hidden;rotatable=0;points=[[0,0.5],[1,0.5]];portConstraint=eastwest;rounded=0;shadow=0;html=0;" parent="QRmiU6R-hzra8IAD7mBf-98" vertex="1">
          <mxGeometry y="26" width="140" height="32" as="geometry" />
        </mxCell>
        <mxCell id="QRmiU6R-hzra8IAD7mBf-104" value="Leads" style="swimlane;fontStyle=2;align=center;verticalAlign=top;childLayout=stackLayout;horizontal=1;startSize=26;horizontalStack=0;resizeParent=1;resizeLast=0;collapsible=1;marginBottom=0;rounded=0;shadow=0;strokeWidth=1;" parent="1" vertex="1">
          <mxGeometry x="-340" y="870" width="140" height="130" as="geometry">
            <mxRectangle x="230" y="140" width="160" height="26" as="alternateBounds" />
          </mxGeometry>
        </mxCell>
        <mxCell id="QRmiU6R-hzra8IAD7mBf-105" value="Create" style="text;align=left;verticalAlign=top;spacingLeft=4;spacingRight=4;overflow=hidden;rotatable=0;points=[[0,0.5],[1,0.5]];portConstraint=eastwest;rounded=0;shadow=0;html=0;" parent="QRmiU6R-hzra8IAD7mBf-104" vertex="1">
          <mxGeometry y="26" width="140" height="34" as="geometry" />
        </mxCell>
        <mxCell id="QRmiU6R-hzra8IAD7mBf-106" value="View" style="text;align=left;verticalAlign=top;spacingLeft=4;spacingRight=4;overflow=hidden;rotatable=0;points=[[0,0.5],[1,0.5]];portConstraint=eastwest;rounded=0;shadow=0;html=0;" parent="QRmiU6R-hzra8IAD7mBf-104" vertex="1">
          <mxGeometry y="60" width="140" height="32" as="geometry" />
        </mxCell>
        <mxCell id="QRmiU6R-hzra8IAD7mBf-107" value="Import" style="text;align=left;verticalAlign=top;spacingLeft=4;spacingRight=4;overflow=hidden;rotatable=0;points=[[0,0.5],[1,0.5]];portConstraint=eastwest;rounded=0;shadow=0;html=0;" parent="QRmiU6R-hzra8IAD7mBf-104" vertex="1">
          <mxGeometry y="92" width="140" height="28" as="geometry" />
        </mxCell>
        <mxCell id="QRmiU6R-hzra8IAD7mBf-108" value="Create Leads" style="swimlane;fontStyle=2;align=center;verticalAlign=top;childLayout=stackLayout;horizontal=1;startSize=26;horizontalStack=0;resizeParent=1;resizeLast=0;collapsible=1;marginBottom=0;rounded=0;shadow=0;strokeWidth=1;" parent="1" vertex="1">
          <mxGeometry x="40" y="844" width="140" height="256" as="geometry">
            <mxRectangle x="230" y="140" width="160" height="26" as="alternateBounds" />
          </mxGeometry>
        </mxCell>
        <mxCell id="QRmiU6R-hzra8IAD7mBf-109" value="Lead Name" style="text;align=left;verticalAlign=top;spacingLeft=4;spacingRight=4;overflow=hidden;rotatable=0;points=[[0,0.5],[1,0.5]];portConstraint=eastwest;rounded=0;shadow=0;html=0;" parent="QRmiU6R-hzra8IAD7mBf-108" vertex="1">
          <mxGeometry y="26" width="140" height="34" as="geometry" />
        </mxCell>
        <mxCell id="QRmiU6R-hzra8IAD7mBf-122" value="name (First - last name)" style="text;align=left;verticalAlign=top;spacingLeft=4;spacingRight=4;overflow=hidden;rotatable=0;points=[[0,0.5],[1,0.5]];portConstraint=eastwest;rounded=0;shadow=0;html=0;" parent="QRmiU6R-hzra8IAD7mBf-108" vertex="1">
          <mxGeometry y="60" width="140" height="34" as="geometry" />
        </mxCell>
        <mxCell id="QRmiU6R-hzra8IAD7mBf-110" value="Email" style="text;align=left;verticalAlign=top;spacingLeft=4;spacingRight=4;overflow=hidden;rotatable=0;points=[[0,0.5],[1,0.5]];portConstraint=eastwest;rounded=0;shadow=0;html=0;" parent="QRmiU6R-hzra8IAD7mBf-108" vertex="1">
          <mxGeometry y="94" width="140" height="32" as="geometry" />
        </mxCell>
        <mxCell id="QRmiU6R-hzra8IAD7mBf-111" value="Job tile" style="text;align=left;verticalAlign=top;spacingLeft=4;spacingRight=4;overflow=hidden;rotatable=0;points=[[0,0.5],[1,0.5]];portConstraint=eastwest;rounded=0;shadow=0;html=0;" parent="QRmiU6R-hzra8IAD7mBf-108" vertex="1">
          <mxGeometry y="126" width="140" height="32" as="geometry" />
        </mxCell>
        <mxCell id="QRmiU6R-hzra8IAD7mBf-112" value="Address" style="text;align=left;verticalAlign=top;spacingLeft=4;spacingRight=4;overflow=hidden;rotatable=0;points=[[0,0.5],[1,0.5]];portConstraint=eastwest;rounded=0;shadow=0;html=0;" parent="QRmiU6R-hzra8IAD7mBf-108" vertex="1">
          <mxGeometry y="158" width="140" height="32" as="geometry" />
        </mxCell>
        <mxCell id="QRmiU6R-hzra8IAD7mBf-113" value="Contact number" style="text;align=left;verticalAlign=top;spacingLeft=4;spacingRight=4;overflow=hidden;rotatable=0;points=[[0,0.5],[1,0.5]];portConstraint=eastwest;rounded=0;shadow=0;html=0;" parent="QRmiU6R-hzra8IAD7mBf-108" vertex="1">
          <mxGeometry y="190" width="140" height="32" as="geometry" />
        </mxCell>
        <mxCell id="QRmiU6R-hzra8IAD7mBf-124" value="Description" style="text;align=left;verticalAlign=top;spacingLeft=4;spacingRight=4;overflow=hidden;rotatable=0;points=[[0,0.5],[1,0.5]];portConstraint=eastwest;rounded=0;shadow=0;html=0;" parent="QRmiU6R-hzra8IAD7mBf-108" vertex="1">
          <mxGeometry y="222" width="140" height="32" as="geometry" />
        </mxCell>
        <mxCell id="QRmiU6R-hzra8IAD7mBf-120" value="view Leads" style="swimlane;fontStyle=2;align=center;verticalAlign=top;childLayout=stackLayout;horizontal=1;startSize=26;horizontalStack=0;resizeParent=1;resizeLast=0;collapsible=1;marginBottom=0;rounded=0;shadow=0;strokeWidth=1;" parent="1" vertex="1">
          <mxGeometry x="40" y="1206" width="140" height="60" as="geometry">
            <mxRectangle x="230" y="140" width="160" height="26" as="alternateBounds" />
          </mxGeometry>
        </mxCell>
        <mxCell id="QRmiU6R-hzra8IAD7mBf-121" value="All Leads" style="text;align=left;verticalAlign=top;spacingLeft=4;spacingRight=4;overflow=hidden;rotatable=0;points=[[0,0.5],[1,0.5]];portConstraint=eastwest;rounded=0;shadow=0;html=0;" parent="QRmiU6R-hzra8IAD7mBf-120" vertex="1">
          <mxGeometry y="26" width="140" height="32" as="geometry" />
        </mxCell>
        <mxCell id="QRmiU6R-hzra8IAD7mBf-125" value="View Lead" style="swimlane;fontStyle=2;align=center;verticalAlign=top;childLayout=stackLayout;horizontal=1;startSize=26;horizontalStack=0;resizeParent=1;resizeLast=0;collapsible=1;marginBottom=0;rounded=0;shadow=0;strokeWidth=1;" parent="1" vertex="1">
          <mxGeometry x="370" y="1108" width="140" height="256" as="geometry">
            <mxRectangle x="230" y="140" width="160" height="26" as="alternateBounds" />
          </mxGeometry>
        </mxCell>
        <mxCell id="QRmiU6R-hzra8IAD7mBf-126" value="Lead Name" style="text;align=left;verticalAlign=top;spacingLeft=4;spacingRight=4;overflow=hidden;rotatable=0;points=[[0,0.5],[1,0.5]];portConstraint=eastwest;rounded=0;shadow=0;html=0;" parent="QRmiU6R-hzra8IAD7mBf-125" vertex="1">
          <mxGeometry y="26" width="140" height="34" as="geometry" />
        </mxCell>
        <mxCell id="QRmiU6R-hzra8IAD7mBf-127" value="name (First - last name)" style="text;align=left;verticalAlign=top;spacingLeft=4;spacingRight=4;overflow=hidden;rotatable=0;points=[[0,0.5],[1,0.5]];portConstraint=eastwest;rounded=0;shadow=0;html=0;" parent="QRmiU6R-hzra8IAD7mBf-125" vertex="1">
          <mxGeometry y="60" width="140" height="34" as="geometry" />
        </mxCell>
        <mxCell id="QRmiU6R-hzra8IAD7mBf-128" value="Email" style="text;align=left;verticalAlign=top;spacingLeft=4;spacingRight=4;overflow=hidden;rotatable=0;points=[[0,0.5],[1,0.5]];portConstraint=eastwest;rounded=0;shadow=0;html=0;" parent="QRmiU6R-hzra8IAD7mBf-125" vertex="1">
          <mxGeometry y="94" width="140" height="32" as="geometry" />
        </mxCell>
        <mxCell id="QRmiU6R-hzra8IAD7mBf-129" value="Job tile" style="text;align=left;verticalAlign=top;spacingLeft=4;spacingRight=4;overflow=hidden;rotatable=0;points=[[0,0.5],[1,0.5]];portConstraint=eastwest;rounded=0;shadow=0;html=0;" parent="QRmiU6R-hzra8IAD7mBf-125" vertex="1">
          <mxGeometry y="126" width="140" height="32" as="geometry" />
        </mxCell>
        <mxCell id="QRmiU6R-hzra8IAD7mBf-130" value="Address" style="text;align=left;verticalAlign=top;spacingLeft=4;spacingRight=4;overflow=hidden;rotatable=0;points=[[0,0.5],[1,0.5]];portConstraint=eastwest;rounded=0;shadow=0;html=0;" parent="QRmiU6R-hzra8IAD7mBf-125" vertex="1">
          <mxGeometry y="158" width="140" height="32" as="geometry" />
        </mxCell>
        <mxCell id="QRmiU6R-hzra8IAD7mBf-131" value="Contact number" style="text;align=left;verticalAlign=top;spacingLeft=4;spacingRight=4;overflow=hidden;rotatable=0;points=[[0,0.5],[1,0.5]];portConstraint=eastwest;rounded=0;shadow=0;html=0;" parent="QRmiU6R-hzra8IAD7mBf-125" vertex="1">
          <mxGeometry y="190" width="140" height="32" as="geometry" />
        </mxCell>
        <mxCell id="QRmiU6R-hzra8IAD7mBf-132" value="Description" style="text;align=left;verticalAlign=top;spacingLeft=4;spacingRight=4;overflow=hidden;rotatable=0;points=[[0,0.5],[1,0.5]];portConstraint=eastwest;rounded=0;shadow=0;html=0;" parent="QRmiU6R-hzra8IAD7mBf-125" vertex="1">
          <mxGeometry y="222" width="140" height="32" as="geometry" />
        </mxCell>
        <mxCell id="QRmiU6R-hzra8IAD7mBf-133" value="Opportunities" style="swimlane;fontStyle=2;align=center;verticalAlign=top;childLayout=stackLayout;horizontal=1;startSize=26;horizontalStack=0;resizeParent=1;resizeLast=0;collapsible=1;marginBottom=0;rounded=0;shadow=0;strokeWidth=1;" parent="1" vertex="1">
          <mxGeometry x="-340" y="1371" width="140" height="130" as="geometry">
            <mxRectangle x="230" y="140" width="160" height="26" as="alternateBounds" />
          </mxGeometry>
        </mxCell>
        <mxCell id="QRmiU6R-hzra8IAD7mBf-134" value="Create" style="text;align=left;verticalAlign=top;spacingLeft=4;spacingRight=4;overflow=hidden;rotatable=0;points=[[0,0.5],[1,0.5]];portConstraint=eastwest;rounded=0;shadow=0;html=0;" parent="QRmiU6R-hzra8IAD7mBf-133" vertex="1">
          <mxGeometry y="26" width="140" height="34" as="geometry" />
        </mxCell>
        <mxCell id="QRmiU6R-hzra8IAD7mBf-135" value="View" style="text;align=left;verticalAlign=top;spacingLeft=4;spacingRight=4;overflow=hidden;rotatable=0;points=[[0,0.5],[1,0.5]];portConstraint=eastwest;rounded=0;shadow=0;html=0;" parent="QRmiU6R-hzra8IAD7mBf-133" vertex="1">
          <mxGeometry y="60" width="140" height="32" as="geometry" />
        </mxCell>
        <mxCell id="QRmiU6R-hzra8IAD7mBf-136" value="Import" style="text;align=left;verticalAlign=top;spacingLeft=4;spacingRight=4;overflow=hidden;rotatable=0;points=[[0,0.5],[1,0.5]];portConstraint=eastwest;rounded=0;shadow=0;html=0;" parent="QRmiU6R-hzra8IAD7mBf-133" vertex="1">
          <mxGeometry y="92" width="140" height="28" as="geometry" />
        </mxCell>
        <mxCell id="QRmiU6R-hzra8IAD7mBf-137" value="Create Opportunities" style="swimlane;fontStyle=2;align=center;verticalAlign=top;childLayout=stackLayout;horizontal=1;startSize=26;horizontalStack=0;resizeParent=1;resizeLast=0;collapsible=1;marginBottom=0;rounded=0;shadow=0;strokeWidth=1;" parent="1" vertex="1">
          <mxGeometry x="40" y="1380" width="140" height="288" as="geometry">
            <mxRectangle x="230" y="140" width="160" height="26" as="alternateBounds" />
          </mxGeometry>
        </mxCell>
        <mxCell id="QRmiU6R-hzra8IAD7mBf-138" value="Opportunity name" style="text;align=left;verticalAlign=top;spacingLeft=4;spacingRight=4;overflow=hidden;rotatable=0;points=[[0,0.5],[1,0.5]];portConstraint=eastwest;rounded=0;shadow=0;html=0;" parent="QRmiU6R-hzra8IAD7mBf-137" vertex="1">
          <mxGeometry y="26" width="140" height="34" as="geometry" />
        </mxCell>
        <mxCell id="QRmiU6R-hzra8IAD7mBf-139" value="Amount" style="text;align=left;verticalAlign=top;spacingLeft=4;spacingRight=4;overflow=hidden;rotatable=0;points=[[0,0.5],[1,0.5]];portConstraint=eastwest;rounded=0;shadow=0;html=0;" parent="QRmiU6R-hzra8IAD7mBf-137" vertex="1">
          <mxGeometry y="60" width="140" height="34" as="geometry" />
        </mxCell>
        <mxCell id="QRmiU6R-hzra8IAD7mBf-155" value="Sales stage" style="text;align=left;verticalAlign=top;spacingLeft=4;spacingRight=4;overflow=hidden;rotatable=0;points=[[0,0.5],[1,0.5]];portConstraint=eastwest;rounded=0;shadow=0;html=0;" parent="QRmiU6R-hzra8IAD7mBf-137" vertex="1">
          <mxGeometry y="94" width="140" height="34" as="geometry" />
        </mxCell>
        <mxCell id="QRmiU6R-hzra8IAD7mBf-140" value="Probability" style="text;align=left;verticalAlign=top;spacingLeft=4;spacingRight=4;overflow=hidden;rotatable=0;points=[[0,0.5],[1,0.5]];portConstraint=eastwest;rounded=0;shadow=0;html=0;" parent="QRmiU6R-hzra8IAD7mBf-137" vertex="1">
          <mxGeometry y="128" width="140" height="32" as="geometry" />
        </mxCell>
        <mxCell id="QRmiU6R-hzra8IAD7mBf-141" value="Next step" style="text;align=left;verticalAlign=top;spacingLeft=4;spacingRight=4;overflow=hidden;rotatable=0;points=[[0,0.5],[1,0.5]];portConstraint=eastwest;rounded=0;shadow=0;html=0;" parent="QRmiU6R-hzra8IAD7mBf-137" vertex="1">
          <mxGeometry y="160" width="140" height="32" as="geometry" />
        </mxCell>
        <mxCell id="QRmiU6R-hzra8IAD7mBf-142" value="Description" style="text;align=left;verticalAlign=top;spacingLeft=4;spacingRight=4;overflow=hidden;rotatable=0;points=[[0,0.5],[1,0.5]];portConstraint=eastwest;rounded=0;shadow=0;html=0;" parent="QRmiU6R-hzra8IAD7mBf-137" vertex="1">
          <mxGeometry y="192" width="140" height="32" as="geometry" />
        </mxCell>
        <mxCell id="QRmiU6R-hzra8IAD7mBf-143" value="Expected close date" style="text;align=left;verticalAlign=top;spacingLeft=4;spacingRight=4;overflow=hidden;rotatable=0;points=[[0,0.5],[1,0.5]];portConstraint=eastwest;rounded=0;shadow=0;html=0;" parent="QRmiU6R-hzra8IAD7mBf-137" vertex="1">
          <mxGeometry y="224" width="140" height="32" as="geometry" />
        </mxCell>
        <mxCell id="QRmiU6R-hzra8IAD7mBf-144" value="Lead Source" style="text;align=left;verticalAlign=top;spacingLeft=4;spacingRight=4;overflow=hidden;rotatable=0;points=[[0,0.5],[1,0.5]];portConstraint=eastwest;rounded=0;shadow=0;html=0;" parent="QRmiU6R-hzra8IAD7mBf-137" vertex="1">
          <mxGeometry y="256" width="140" height="32" as="geometry" />
        </mxCell>
        <mxCell id="QRmiU6R-hzra8IAD7mBf-145" value="view Opportunities" style="swimlane;fontStyle=2;align=center;verticalAlign=top;childLayout=stackLayout;horizontal=1;startSize=26;horizontalStack=0;resizeParent=1;resizeLast=0;collapsible=1;marginBottom=0;rounded=0;shadow=0;strokeWidth=1;" parent="1" vertex="1">
          <mxGeometry x="40" y="1770" width="140" height="60" as="geometry">
            <mxRectangle x="230" y="140" width="160" height="26" as="alternateBounds" />
          </mxGeometry>
        </mxCell>
        <mxCell id="QRmiU6R-hzra8IAD7mBf-146" value="All Opportunities" style="text;align=left;verticalAlign=top;spacingLeft=4;spacingRight=4;overflow=hidden;rotatable=0;points=[[0,0.5],[1,0.5]];portConstraint=eastwest;rounded=0;shadow=0;html=0;" parent="QRmiU6R-hzra8IAD7mBf-145" vertex="1">
          <mxGeometry y="26" width="140" height="32" as="geometry" />
        </mxCell>
        <mxCell id="QRmiU6R-hzra8IAD7mBf-156" value="View Opportunity" style="swimlane;fontStyle=2;align=center;verticalAlign=top;childLayout=stackLayout;horizontal=1;startSize=26;horizontalStack=0;resizeParent=1;resizeLast=0;collapsible=1;marginBottom=0;rounded=0;shadow=0;strokeWidth=1;" parent="1" vertex="1">
          <mxGeometry x="380" y="1720" width="140" height="288" as="geometry">
            <mxRectangle x="230" y="140" width="160" height="26" as="alternateBounds" />
          </mxGeometry>
        </mxCell>
        <mxCell id="QRmiU6R-hzra8IAD7mBf-157" value="Opportunity name" style="text;align=left;verticalAlign=top;spacingLeft=4;spacingRight=4;overflow=hidden;rotatable=0;points=[[0,0.5],[1,0.5]];portConstraint=eastwest;rounded=0;shadow=0;html=0;" parent="QRmiU6R-hzra8IAD7mBf-156" vertex="1">
          <mxGeometry y="26" width="140" height="34" as="geometry" />
        </mxCell>
        <mxCell id="QRmiU6R-hzra8IAD7mBf-158" value="Amount" style="text;align=left;verticalAlign=top;spacingLeft=4;spacingRight=4;overflow=hidden;rotatable=0;points=[[0,0.5],[1,0.5]];portConstraint=eastwest;rounded=0;shadow=0;html=0;" parent="QRmiU6R-hzra8IAD7mBf-156" vertex="1">
          <mxGeometry y="60" width="140" height="34" as="geometry" />
        </mxCell>
        <mxCell id="QRmiU6R-hzra8IAD7mBf-159" value="Sales stage" style="text;align=left;verticalAlign=top;spacingLeft=4;spacingRight=4;overflow=hidden;rotatable=0;points=[[0,0.5],[1,0.5]];portConstraint=eastwest;rounded=0;shadow=0;html=0;" parent="QRmiU6R-hzra8IAD7mBf-156" vertex="1">
          <mxGeometry y="94" width="140" height="34" as="geometry" />
        </mxCell>
        <mxCell id="QRmiU6R-hzra8IAD7mBf-160" value="Probability" style="text;align=left;verticalAlign=top;spacingLeft=4;spacingRight=4;overflow=hidden;rotatable=0;points=[[0,0.5],[1,0.5]];portConstraint=eastwest;rounded=0;shadow=0;html=0;" parent="QRmiU6R-hzra8IAD7mBf-156" vertex="1">
          <mxGeometry y="128" width="140" height="32" as="geometry" />
        </mxCell>
        <mxCell id="QRmiU6R-hzra8IAD7mBf-161" value="Next step" style="text;align=left;verticalAlign=top;spacingLeft=4;spacingRight=4;overflow=hidden;rotatable=0;points=[[0,0.5],[1,0.5]];portConstraint=eastwest;rounded=0;shadow=0;html=0;" parent="QRmiU6R-hzra8IAD7mBf-156" vertex="1">
          <mxGeometry y="160" width="140" height="32" as="geometry" />
        </mxCell>
        <mxCell id="QRmiU6R-hzra8IAD7mBf-162" value="Description" style="text;align=left;verticalAlign=top;spacingLeft=4;spacingRight=4;overflow=hidden;rotatable=0;points=[[0,0.5],[1,0.5]];portConstraint=eastwest;rounded=0;shadow=0;html=0;" parent="QRmiU6R-hzra8IAD7mBf-156" vertex="1">
          <mxGeometry y="192" width="140" height="32" as="geometry" />
        </mxCell>
        <mxCell id="QRmiU6R-hzra8IAD7mBf-163" value="Expected close date" style="text;align=left;verticalAlign=top;spacingLeft=4;spacingRight=4;overflow=hidden;rotatable=0;points=[[0,0.5],[1,0.5]];portConstraint=eastwest;rounded=0;shadow=0;html=0;" parent="QRmiU6R-hzra8IAD7mBf-156" vertex="1">
          <mxGeometry y="224" width="140" height="32" as="geometry" />
        </mxCell>
        <mxCell id="QRmiU6R-hzra8IAD7mBf-164" value="Lead Source" style="text;align=left;verticalAlign=top;spacingLeft=4;spacingRight=4;overflow=hidden;rotatable=0;points=[[0,0.5],[1,0.5]];portConstraint=eastwest;rounded=0;shadow=0;html=0;" parent="QRmiU6R-hzra8IAD7mBf-156" vertex="1">
          <mxGeometry y="256" width="140" height="32" as="geometry" />
        </mxCell>
        <mxCell id="QRmiU6R-hzra8IAD7mBf-165" value="Quotes" style="swimlane;fontStyle=2;align=center;verticalAlign=top;childLayout=stackLayout;horizontal=1;startSize=26;horizontalStack=0;resizeParent=1;resizeLast=0;collapsible=1;marginBottom=0;rounded=0;shadow=0;strokeWidth=1;" parent="1" vertex="1">
          <mxGeometry x="-340" y="2120" width="140" height="130" as="geometry">
            <mxRectangle x="230" y="140" width="160" height="26" as="alternateBounds" />
          </mxGeometry>
        </mxCell>
        <mxCell id="QRmiU6R-hzra8IAD7mBf-166" value="Create" style="text;align=left;verticalAlign=top;spacingLeft=4;spacingRight=4;overflow=hidden;rotatable=0;points=[[0,0.5],[1,0.5]];portConstraint=eastwest;rounded=0;shadow=0;html=0;" parent="QRmiU6R-hzra8IAD7mBf-165" vertex="1">
          <mxGeometry y="26" width="140" height="34" as="geometry" />
        </mxCell>
        <mxCell id="QRmiU6R-hzra8IAD7mBf-167" value="View" style="text;align=left;verticalAlign=top;spacingLeft=4;spacingRight=4;overflow=hidden;rotatable=0;points=[[0,0.5],[1,0.5]];portConstraint=eastwest;rounded=0;shadow=0;html=0;" parent="QRmiU6R-hzra8IAD7mBf-165" vertex="1">
          <mxGeometry y="60" width="140" height="32" as="geometry" />
        </mxCell>
        <mxCell id="QRmiU6R-hzra8IAD7mBf-168" value="Import" style="text;align=left;verticalAlign=top;spacingLeft=4;spacingRight=4;overflow=hidden;rotatable=0;points=[[0,0.5],[1,0.5]];portConstraint=eastwest;rounded=0;shadow=0;html=0;" parent="QRmiU6R-hzra8IAD7mBf-165" vertex="1">
          <mxGeometry y="92" width="140" height="28" as="geometry" />
        </mxCell>
        <mxCell id="QRmiU6R-hzra8IAD7mBf-169" value="Create Quotes" style="swimlane;fontStyle=2;align=center;verticalAlign=top;childLayout=stackLayout;horizontal=1;startSize=26;horizontalStack=0;resizeParent=1;resizeLast=0;collapsible=1;marginBottom=0;rounded=0;shadow=0;strokeWidth=1;" parent="1" vertex="1">
          <mxGeometry x="40" y="2030" width="200" height="712" as="geometry">
            <mxRectangle x="230" y="140" width="160" height="26" as="alternateBounds" />
          </mxGeometry>
        </mxCell>
        <mxCell id="QRmiU6R-hzra8IAD7mBf-170" value="TitleÂ " style="text;align=left;verticalAlign=top;spacingLeft=4;spacingRight=4;overflow=hidden;rotatable=0;points=[[0,0.5],[1,0.5]];portConstraint=eastwest;rounded=0;shadow=0;html=0;" parent="QRmiU6R-hzra8IAD7mBf-169" vertex="1">
          <mxGeometry y="26" width="200" height="34" as="geometry" />
        </mxCell>
        <mxCell id="QRmiU6R-hzra8IAD7mBf-171" value="Valid until" style="text;align=left;verticalAlign=top;spacingLeft=4;spacingRight=4;overflow=hidden;rotatable=0;points=[[0,0.5],[1,0.5]];portConstraint=eastwest;rounded=0;shadow=0;html=0;" parent="QRmiU6R-hzra8IAD7mBf-169" vertex="1">
          <mxGeometry y="60" width="200" height="34" as="geometry" />
        </mxCell>
        <mxCell id="QRmiU6R-hzra8IAD7mBf-172" value="Approval Status" style="text;align=left;verticalAlign=top;spacingLeft=4;spacingRight=4;overflow=hidden;rotatable=0;points=[[0,0.5],[1,0.5]];portConstraint=eastwest;rounded=0;shadow=0;html=0;" parent="QRmiU6R-hzra8IAD7mBf-169" vertex="1">
          <mxGeometry y="94" width="200" height="34" as="geometry" />
        </mxCell>
        <mxCell id="QRmiU6R-hzra8IAD7mBf-173" value="Opportunity" style="text;align=left;verticalAlign=top;spacingLeft=4;spacingRight=4;overflow=hidden;rotatable=0;points=[[0,0.5],[1,0.5]];portConstraint=eastwest;rounded=0;shadow=0;html=0;" parent="QRmiU6R-hzra8IAD7mBf-169" vertex="1">
          <mxGeometry y="128" width="200" height="32" as="geometry" />
        </mxCell>
        <mxCell id="QRmiU6R-hzra8IAD7mBf-174" value="Quotes Stage" style="text;align=left;verticalAlign=top;spacingLeft=4;spacingRight=4;overflow=hidden;rotatable=0;points=[[0,0.5],[1,0.5]];portConstraint=eastwest;rounded=0;shadow=0;html=0;" parent="QRmiU6R-hzra8IAD7mBf-169" vertex="1">
          <mxGeometry y="160" width="200" height="32" as="geometry" />
        </mxCell>
        <mxCell id="QRmiU6R-hzra8IAD7mBf-175" value="Invoice Status(Y/N)" style="text;align=left;verticalAlign=top;spacingLeft=4;spacingRight=4;overflow=hidden;rotatable=0;points=[[0,0.5],[1,0.5]];portConstraint=eastwest;rounded=0;shadow=0;html=0;" parent="QRmiU6R-hzra8IAD7mBf-169" vertex="1">
          <mxGeometry y="192" width="200" height="32" as="geometry" />
        </mxCell>
        <mxCell id="QRmiU6R-hzra8IAD7mBf-176" value="Approval issues Description" style="text;align=left;verticalAlign=top;spacingLeft=4;spacingRight=4;overflow=hidden;rotatable=0;points=[[0,0.5],[1,0.5]];portConstraint=eastwest;rounded=0;shadow=0;html=0;" parent="QRmiU6R-hzra8IAD7mBf-169" vertex="1">
          <mxGeometry y="224" width="200" height="32" as="geometry" />
        </mxCell>
        <mxCell id="QRmiU6R-hzra8IAD7mBf-177" value="Lead Source" style="text;align=left;verticalAlign=top;spacingLeft=4;spacingRight=4;overflow=hidden;rotatable=0;points=[[0,0.5],[1,0.5]];portConstraint=eastwest;rounded=0;shadow=0;html=0;" parent="QRmiU6R-hzra8IAD7mBf-169" vertex="1">
          <mxGeometry y="256" width="200" height="32" as="geometry" />
        </mxCell>
        <mxCell id="QRmiU6R-hzra8IAD7mBf-189" value="" style="line;html=1;strokeWidth=1;align=left;verticalAlign=middle;spacingTop=-1;spacingLeft=3;spacingRight=3;rotatable=0;labelPosition=right;points=[];portConstraint=eastwest;" parent="QRmiU6R-hzra8IAD7mBf-169" vertex="1">
          <mxGeometry y="288" width="200" height="20" as="geometry" />
        </mxCell>
        <mxCell id="QRmiU6R-hzra8IAD7mBf-190" value="AccountÂ " style="text;align=left;verticalAlign=top;spacingLeft=4;spacingRight=4;overflow=hidden;rotatable=0;points=[[0,0.5],[1,0.5]];portConstraint=eastwest;rounded=0;shadow=0;html=0;" parent="QRmiU6R-hzra8IAD7mBf-169" vertex="1">
          <mxGeometry y="308" width="200" height="32" as="geometry" />
        </mxCell>
        <mxCell id="QRmiU6R-hzra8IAD7mBf-191" value="ContactÂ " style="text;align=left;verticalAlign=top;spacingLeft=4;spacingRight=4;overflow=hidden;rotatable=0;points=[[0,0.5],[1,0.5]];portConstraint=eastwest;rounded=0;shadow=0;html=0;" parent="QRmiU6R-hzra8IAD7mBf-169" vertex="1">
          <mxGeometry y="340" width="200" height="32" as="geometry" />
        </mxCell>
        <mxCell id="QRmiU6R-hzra8IAD7mBf-192" value="Billing Address" style="text;align=left;verticalAlign=top;spacingLeft=4;spacingRight=4;overflow=hidden;rotatable=0;points=[[0,0.5],[1,0.5]];portConstraint=eastwest;rounded=0;shadow=0;html=0;" parent="QRmiU6R-hzra8IAD7mBf-169" vertex="1">
          <mxGeometry y="372" width="200" height="32" as="geometry" />
        </mxCell>
        <mxCell id="QRmiU6R-hzra8IAD7mBf-193" value="Shipping Address" style="text;align=left;verticalAlign=top;spacingLeft=4;spacingRight=4;overflow=hidden;rotatable=0;points=[[0,0.5],[1,0.5]];portConstraint=eastwest;rounded=0;shadow=0;html=0;" parent="QRmiU6R-hzra8IAD7mBf-169" vertex="1">
          <mxGeometry y="404" width="200" height="32" as="geometry" />
        </mxCell>
        <mxCell id="QRmiU6R-hzra8IAD7mBf-195" value="" style="line;html=1;strokeWidth=1;align=left;verticalAlign=middle;spacingTop=-1;spacingLeft=3;spacingRight=3;rotatable=0;labelPosition=right;points=[];portConstraint=eastwest;" parent="QRmiU6R-hzra8IAD7mBf-169" vertex="1">
          <mxGeometry y="436" width="200" height="20" as="geometry" />
        </mxCell>
        <mxCell id="QRmiU6R-hzra8IAD7mBf-194" value="Line Items" style="text;align=left;verticalAlign=top;spacingLeft=4;spacingRight=4;overflow=hidden;rotatable=0;points=[[0,0.5],[1,0.5]];portConstraint=eastwest;rounded=0;shadow=0;html=0;" parent="QRmiU6R-hzra8IAD7mBf-169" vertex="1">
          <mxGeometry y="456" width="200" height="32" as="geometry" />
        </mxCell>
        <mxCell id="QRmiU6R-hzra8IAD7mBf-196" value="Total" style="text;align=left;verticalAlign=top;spacingLeft=4;spacingRight=4;overflow=hidden;rotatable=0;points=[[0,0.5],[1,0.5]];portConstraint=eastwest;rounded=0;shadow=0;html=0;" parent="QRmiU6R-hzra8IAD7mBf-169" vertex="1">
          <mxGeometry y="488" width="200" height="32" as="geometry" />
        </mxCell>
        <mxCell id="QRmiU6R-hzra8IAD7mBf-197" value="Discount" style="text;align=left;verticalAlign=top;spacingLeft=4;spacingRight=4;overflow=hidden;rotatable=0;points=[[0,0.5],[1,0.5]];portConstraint=eastwest;rounded=0;shadow=0;html=0;" parent="QRmiU6R-hzra8IAD7mBf-169" vertex="1">
          <mxGeometry y="520" width="200" height="32" as="geometry" />
        </mxCell>
        <mxCell id="QRmiU6R-hzra8IAD7mBf-198" value="SubTotal" style="text;align=left;verticalAlign=top;spacingLeft=4;spacingRight=4;overflow=hidden;rotatable=0;points=[[0,0.5],[1,0.5]];portConstraint=eastwest;rounded=0;shadow=0;html=0;" parent="QRmiU6R-hzra8IAD7mBf-169" vertex="1">
          <mxGeometry y="552" width="200" height="32" as="geometry" />
        </mxCell>
        <mxCell id="QRmiU6R-hzra8IAD7mBf-199" value="Shipping" style="text;align=left;verticalAlign=top;spacingLeft=4;spacingRight=4;overflow=hidden;rotatable=0;points=[[0,0.5],[1,0.5]];portConstraint=eastwest;rounded=0;shadow=0;html=0;" parent="QRmiU6R-hzra8IAD7mBf-169" vertex="1">
          <mxGeometry y="584" width="200" height="32" as="geometry" />
        </mxCell>
        <mxCell id="QRmiU6R-hzra8IAD7mBf-200" value="Shipping Tax" style="text;align=left;verticalAlign=top;spacingLeft=4;spacingRight=4;overflow=hidden;rotatable=0;points=[[0,0.5],[1,0.5]];portConstraint=eastwest;rounded=0;shadow=0;html=0;" parent="QRmiU6R-hzra8IAD7mBf-169" vertex="1">
          <mxGeometry y="616" width="200" height="32" as="geometry" />
        </mxCell>
        <mxCell id="QRmiU6R-hzra8IAD7mBf-201" value="Tax" style="text;align=left;verticalAlign=top;spacingLeft=4;spacingRight=4;overflow=hidden;rotatable=0;points=[[0,0.5],[1,0.5]];portConstraint=eastwest;rounded=0;shadow=0;html=0;" parent="QRmiU6R-hzra8IAD7mBf-169" vertex="1">
          <mxGeometry y="648" width="200" height="32" as="geometry" />
        </mxCell>
        <mxCell id="QRmiU6R-hzra8IAD7mBf-202" value="Grand Total" style="text;align=left;verticalAlign=top;spacingLeft=4;spacingRight=4;overflow=hidden;rotatable=0;points=[[0,0.5],[1,0.5]];portConstraint=eastwest;rounded=0;shadow=0;html=0;" parent="QRmiU6R-hzra8IAD7mBf-169" vertex="1">
          <mxGeometry y="680" width="200" height="32" as="geometry" />
        </mxCell>
        <mxCell id="QRmiU6R-hzra8IAD7mBf-178" value="view Quotes" style="swimlane;fontStyle=2;align=center;verticalAlign=top;childLayout=stackLayout;horizontal=1;startSize=26;horizontalStack=0;resizeParent=1;resizeLast=0;collapsible=1;marginBottom=0;rounded=0;shadow=0;strokeWidth=1;" parent="1" vertex="1">
          <mxGeometry x="40" y="2800" width="140" height="60" as="geometry">
            <mxRectangle x="230" y="140" width="160" height="26" as="alternateBounds" />
          </mxGeometry>
        </mxCell>
        <mxCell id="QRmiU6R-hzra8IAD7mBf-179" value="All Ouotes" style="text;align=left;verticalAlign=top;spacingLeft=4;spacingRight=4;overflow=hidden;rotatable=0;points=[[0,0.5],[1,0.5]];portConstraint=eastwest;rounded=0;shadow=0;html=0;" parent="QRmiU6R-hzra8IAD7mBf-178" vertex="1">
          <mxGeometry y="26" width="140" height="32" as="geometry" />
        </mxCell>
        <mxCell id="QRmiU6R-hzra8IAD7mBf-207" value="&lt;span style=&quot;color: rgba(0, 0, 0, 0); font-family: monospace; font-size: 0px; text-align: start;&quot;&gt;%3CmxGraphModel%3E%3Croot%3E%3CmxCell%20id%3D%220%22%2F%3E%3CmxCell%20id%3D%221%22%20parent%3D%220%22%2F%3E%3CmxCell%20id%3D%222%22%20value%3D%22Quotes%22%20style%3D%22swimlane%3BfontStyle%3D2%3Balign%3Dcenter%3BverticalAlign%3Dtop%3BchildLayout%3DstackLayout%3Bhorizontal%3D1%3BstartSize%3D26%3BhorizontalStack%3D0%3BresizeParent%3D1%3BresizeLast%3D0%3Bcollapsible%3D1%3BmarginBottom%3D0%3Brounded%3D0%3Bshadow%3D0%3BstrokeWidth%3D1%3B%22%20vertex%3D%221%22%20parent%3D%221%22%3E%3CmxGeometry%20x%3D%2270%22%20y%3D%222229%22%20width%3D%22140%22%20height%3D%22130%22%20as%3D%22geometry%22%3E%3CmxRectangle%20x%3D%22230%22%20y%3D%22140%22%20width%3D%22160%22%20height%3D%2226%22%20as%3D%22alternateBounds%22%2F%3E%3C%2FmxGeometry%3E%3C%2FmxCell%3E%3CmxCell%20id%3D%223%22%20value%3D%22Create%22%20style%3D%22text%3Balign%3Dleft%3BverticalAlign%3Dtop%3BspacingLeft%3D4%3BspacingRight%3D4%3Boverflow%3Dhidden%3Brotatable%3D0%3Bpoints%3D%5B%5B0%2C0.5%5D%2C%5B1%2C0.5%5D%5D%3BportConstraint%3Deastwest%3Brounded%3D0%3Bshadow%3D0%3Bhtml%3D0%3B%22%20vertex%3D%221%22%20parent%3D%222%22%3E%3CmxGeometry%20y%3D%2226%22%20width%3D%22140%22%20height%3D%2234%22%20as%3D%22geometry%22%2F%3E%3C%2FmxCell%3E%3CmxCell%20id%3D%224%22%20value%3D%22View%22%20style%3D%22text%3Balign%3Dleft%3BverticalAlign%3Dtop%3BspacingLeft%3D4%3BspacingRight%3D4%3Boverflow%3Dhidden%3Brotatable%3D0%3Bpoints%3D%5B%5B0%2C0.5%5D%2C%5B1%2C0.5%5D%5D%3BportConstraint%3Deastwest%3Brounded%3D0%3Bshadow%3D0%3Bhtml%3D0%3B%22%20vertex%3D%221%22%20parent%3D%222%22%3E%3CmxGeometry%20y%3D%2260%22%20width%3D%22140%22%20height%3D%2232%22%20as%3D%22geometry%22%2F%3E%3C%2FmxCell%3E%3CmxCell%20id%3D%225%22%20value%3D%22Import%22%20style%3D%22text%3Balign%3Dleft%3BverticalAlign%3Dtop%3BspacingLeft%3D4%3BspacingRight%3D4%3Boverflow%3Dhidden%3Brotatable%3D0%3Bpoints%3D%5B%5B0%2C0.5%5D%2C%5B1%2C0.5%5D%5D%3BportConstraint%3Deastwest%3Brounded%3D0%3Bshadow%3D0%3Bhtml%3D0%3B%22%20vertex%3D%221%22%20parent%3D%222%22%3E%3CmxGeometry%20y%3D%2292%22%20width%3D%22140%22%20height%3D%2228%22%20as%3D%22geometry%22%2F%3E%3C%2FmxCell%3E%3C%2Froot%3E%3C%2FmxGraphModel%3E&lt;/span&gt;&lt;span style=&quot;color: rgba(0, 0, 0, 0); font-family: monospace; font-size: 0px; text-align: start;&quot;&gt;%3CmxGraphModel%3E%3Croot%3E%3CmxCell%20id%3D%220%22%2F%3E%3CmxCell%20id%3D%221%22%20parent%3D%220%22%2F%3E%3CmxCell%20id%3D%222%22%20value%3D%22Quotes%22%20style%3D%22swimlane%3BfontStyle%3D2%3Balign%3Dcenter%3BverticalAlign%3Dtop%3BchildLayout%3DstackLayout%3Bhorizontal%3D1%3BstartSize%3D26%3BhorizontalStack%3D0%3BresizeParent%3D1%3BresizeLast%3D0%3Bcollapsible%3D1%3BmarginBottom%3D0%3Brounded%3D0%3Bshadow%3D0%3BstrokeWidth%3D1%3B%22%20vertex%3D%221%22%20parent%3D%221%22%3E%3CmxGeometry%20x%3D%2270%22%20y%3D%222229%22%20width%3D%22140%22%20height%3D%22130%22%20as%3D%22geometry%22%3E%3CmxRectangle%20x%3D%22230%22%20y%3D%22140%22%20width%3D%22160%22%20height%3D%2226%22%20as%3D%22alternateBounds%22%2F%3E%3C%2FmxGeometry%3E%3C%2FmxCell%3E%3CmxCell%20id%3D%223%22%20value%3D%22Create%22%20style%3D%22text%3Balign%3Dleft%3BverticalAlign%3Dtop%3BspacingLeft%3D4%3BspacingRight%3D4%3Boverflow%3Dhidden%3Brotatable%3D0%3Bpoints%3D%5B%5B0%2C0.5%5D%2C%5B1%2C0.5%5D%5D%3BportConstraint%3Deastwest%3Brounded%3D0%3Bshadow%3D0%3Bhtml%3D0%3B%22%20vertex%3D%221%22%20parent%3D%222%22%3E%3CmxGeometry%20y%3D%2226%22%20width%3D%22140%22%20height%3D%2234%22%20as%3D%22geometry%22%2F%3E%3C%2FmxCell%3E%3CmxCell%20id%3D%224%22%20value%3D%22View%22%20style%3D%22text%3Balign%3Dleft%3BverticalAlign%3Dtop%3BspacingLeft%3D4%3BspacingRight%3D4%3Boverflow%3Dhidden%3Brotatable%3D0%3Bpoints%3D%5B%5B0%2C0.5%5D%2C%5B1%2C0.5%5D%5D%3BportConstraint%3Deastwest%3Brounded%3D0%3Bshadow%3D0%3Bhtml%3D0%3B%22%20vertex%3D%221%22%20parent%3D%222%22%3E%3CmxGeometry%20y%3D%2260%22%20width%3D%22140%22%20height%3D%2232%22%20as%3D%22geometry%22%2F%3E%3C%2FmxCell%3E%3CmxCell%20id%3D%225%22%20value%3D%22Import%22%20style%3D%22text%3Balign%3Dleft%3BverticalAlign%3Dtop%3BspacingLeft%3D4%3BspacingRight%3D4%3Boverflow%3Dhidden%3Brotatable%3D0%3Bpoints%3D%5B%5B0%2C0.5%5D%2C%5B1%2C0.5%5D%5D%3BportConstraint%3Deastwest%3Brounded%3D0%3Bshadow%3D0%3Bhtml%3D0%3B%22%20vertex%3D%221%22%20parent%3D%222%22%3E%3CmxGeometry%20y%3D%2292%22%20width%3D%22140%22%20height%3D%2228%22%20as%3D%22geometry%22%2F%3E%3C%2FmxCell%3E%3C%2Froot%3E%3C%2FmxGraphModel%3E&lt;/span&gt;" style="text;html=1;align=center;verticalAlign=middle;resizable=0;points=[];autosize=1;strokeColor=none;fillColor=none;" parent="1" vertex="1">
          <mxGeometry x="-230" y="2758" width="20" height="30" as="geometry" />
        </mxCell>
        <mxCell id="QRmiU6R-hzra8IAD7mBf-208" value="Calendar" style="swimlane;fontStyle=2;align=center;verticalAlign=top;childLayout=stackLayout;horizontal=1;startSize=26;horizontalStack=0;resizeParent=1;resizeLast=0;collapsible=1;marginBottom=0;rounded=0;shadow=0;strokeWidth=1;" parent="1" vertex="1">
          <mxGeometry x="-340" y="3090" width="140" height="148" as="geometry">
            <mxRectangle x="230" y="140" width="160" height="26" as="alternateBounds" />
          </mxGeometry>
        </mxCell>
        <mxCell id="QRmiU6R-hzra8IAD7mBf-209" value="Schedule Meeting" style="text;align=left;verticalAlign=top;spacingLeft=4;spacingRight=4;overflow=hidden;rotatable=0;points=[[0,0.5],[1,0.5]];portConstraint=eastwest;rounded=0;shadow=0;html=0;" parent="QRmiU6R-hzra8IAD7mBf-208" vertex="1">
          <mxGeometry y="26" width="140" height="34" as="geometry" />
        </mxCell>
        <mxCell id="QRmiU6R-hzra8IAD7mBf-210" value="Schedule Call" style="text;align=left;verticalAlign=top;spacingLeft=4;spacingRight=4;overflow=hidden;rotatable=0;points=[[0,0.5],[1,0.5]];portConstraint=eastwest;rounded=0;shadow=0;html=0;" parent="QRmiU6R-hzra8IAD7mBf-208" vertex="1">
          <mxGeometry y="60" width="140" height="32" as="geometry" />
        </mxCell>
        <mxCell id="QRmiU6R-hzra8IAD7mBf-211" value="Create Task" style="text;align=left;verticalAlign=top;spacingLeft=4;spacingRight=4;overflow=hidden;rotatable=0;points=[[0,0.5],[1,0.5]];portConstraint=eastwest;rounded=0;shadow=0;html=0;" parent="QRmiU6R-hzra8IAD7mBf-208" vertex="1">
          <mxGeometry y="92" width="140" height="28" as="geometry" />
        </mxCell>
        <mxCell id="QRmiU6R-hzra8IAD7mBf-253" value="Today" style="text;align=left;verticalAlign=top;spacingLeft=4;spacingRight=4;overflow=hidden;rotatable=0;points=[[0,0.5],[1,0.5]];portConstraint=eastwest;rounded=0;shadow=0;html=0;" parent="QRmiU6R-hzra8IAD7mBf-208" vertex="1">
          <mxGeometry y="120" width="140" height="28" as="geometry" />
        </mxCell>
        <mxCell id="QRmiU6R-hzra8IAD7mBf-212" value="Schedule Meeting" style="swimlane;fontStyle=2;align=center;verticalAlign=top;childLayout=stackLayout;horizontal=1;startSize=26;horizontalStack=0;resizeParent=1;resizeLast=0;collapsible=1;marginBottom=0;rounded=0;shadow=0;strokeWidth=1;" parent="1" vertex="1">
          <mxGeometry x="-130" y="2870" width="140" height="256" as="geometry">
            <mxRectangle x="230" y="140" width="160" height="26" as="alternateBounds" />
          </mxGeometry>
        </mxCell>
        <mxCell id="QRmiU6R-hzra8IAD7mBf-213" value="Subject" style="text;align=left;verticalAlign=top;spacingLeft=4;spacingRight=4;overflow=hidden;rotatable=0;points=[[0,0.5],[1,0.5]];portConstraint=eastwest;rounded=0;shadow=0;html=0;" parent="QRmiU6R-hzra8IAD7mBf-212" vertex="1">
          <mxGeometry y="26" width="140" height="34" as="geometry" />
        </mxCell>
        <mxCell id="QRmiU6R-hzra8IAD7mBf-214" value="Start Date" style="text;align=left;verticalAlign=top;spacingLeft=4;spacingRight=4;overflow=hidden;rotatable=0;points=[[0,0.5],[1,0.5]];portConstraint=eastwest;rounded=0;shadow=0;html=0;" parent="QRmiU6R-hzra8IAD7mBf-212" vertex="1">
          <mxGeometry y="60" width="140" height="34" as="geometry" />
        </mxCell>
        <mxCell id="QRmiU6R-hzra8IAD7mBf-215" value="End Date" style="text;align=left;verticalAlign=top;spacingLeft=4;spacingRight=4;overflow=hidden;rotatable=0;points=[[0,0.5],[1,0.5]];portConstraint=eastwest;rounded=0;shadow=0;html=0;" parent="QRmiU6R-hzra8IAD7mBf-212" vertex="1">
          <mxGeometry y="94" width="140" height="34" as="geometry" />
        </mxCell>
        <mxCell id="QRmiU6R-hzra8IAD7mBf-216" value="Duration" style="text;align=left;verticalAlign=top;spacingLeft=4;spacingRight=4;overflow=hidden;rotatable=0;points=[[0,0.5],[1,0.5]];portConstraint=eastwest;rounded=0;shadow=0;html=0;" parent="QRmiU6R-hzra8IAD7mBf-212" vertex="1">
          <mxGeometry y="128" width="140" height="32" as="geometry" />
        </mxCell>
        <mxCell id="QRmiU6R-hzra8IAD7mBf-221" value="Status" style="text;align=left;verticalAlign=top;spacingLeft=4;spacingRight=4;overflow=hidden;rotatable=0;points=[[0,0.5],[1,0.5]];portConstraint=eastwest;rounded=0;shadow=0;html=0;" parent="QRmiU6R-hzra8IAD7mBf-212" vertex="1">
          <mxGeometry y="160" width="140" height="32" as="geometry" />
        </mxCell>
        <mxCell id="QRmiU6R-hzra8IAD7mBf-223" value="Related To" style="text;align=left;verticalAlign=top;spacingLeft=4;spacingRight=4;overflow=hidden;rotatable=0;points=[[0,0.5],[1,0.5]];portConstraint=eastwest;rounded=0;shadow=0;html=0;" parent="QRmiU6R-hzra8IAD7mBf-212" vertex="1">
          <mxGeometry y="192" width="140" height="32" as="geometry" />
        </mxCell>
        <mxCell id="QRmiU6R-hzra8IAD7mBf-224" value="Location" style="text;align=left;verticalAlign=top;spacingLeft=4;spacingRight=4;overflow=hidden;rotatable=0;points=[[0,0.5],[1,0.5]];portConstraint=eastwest;rounded=0;shadow=0;html=0;" parent="QRmiU6R-hzra8IAD7mBf-212" vertex="1">
          <mxGeometry y="224" width="140" height="32" as="geometry" />
        </mxCell>
        <mxCell id="QRmiU6R-hzra8IAD7mBf-230" value="Schedule Call" style="swimlane;fontStyle=2;align=center;verticalAlign=top;childLayout=stackLayout;horizontal=1;startSize=26;horizontalStack=0;resizeParent=1;resizeLast=0;collapsible=1;marginBottom=0;rounded=0;shadow=0;strokeWidth=1;" parent="1" vertex="1">
          <mxGeometry x="-120" y="3170" width="140" height="256" as="geometry">
            <mxRectangle x="230" y="140" width="160" height="26" as="alternateBounds" />
          </mxGeometry>
        </mxCell>
        <mxCell id="QRmiU6R-hzra8IAD7mBf-231" value="Subject" style="text;align=left;verticalAlign=top;spacingLeft=4;spacingRight=4;overflow=hidden;rotatable=0;points=[[0,0.5],[1,0.5]];portConstraint=eastwest;rounded=0;shadow=0;html=0;" parent="QRmiU6R-hzra8IAD7mBf-230" vertex="1">
          <mxGeometry y="26" width="140" height="34" as="geometry" />
        </mxCell>
        <mxCell id="QRmiU6R-hzra8IAD7mBf-232" value="Start Date" style="text;align=left;verticalAlign=top;spacingLeft=4;spacingRight=4;overflow=hidden;rotatable=0;points=[[0,0.5],[1,0.5]];portConstraint=eastwest;rounded=0;shadow=0;html=0;" parent="QRmiU6R-hzra8IAD7mBf-230" vertex="1">
          <mxGeometry y="60" width="140" height="34" as="geometry" />
        </mxCell>
        <mxCell id="QRmiU6R-hzra8IAD7mBf-233" value="End Date" style="text;align=left;verticalAlign=top;spacingLeft=4;spacingRight=4;overflow=hidden;rotatable=0;points=[[0,0.5],[1,0.5]];portConstraint=eastwest;rounded=0;shadow=0;html=0;" parent="QRmiU6R-hzra8IAD7mBf-230" vertex="1">
          <mxGeometry y="94" width="140" height="34" as="geometry" />
        </mxCell>
        <mxCell id="QRmiU6R-hzra8IAD7mBf-234" value="Duration" style="text;align=left;verticalAlign=top;spacingLeft=4;spacingRight=4;overflow=hidden;rotatable=0;points=[[0,0.5],[1,0.5]];portConstraint=eastwest;rounded=0;shadow=0;html=0;" parent="QRmiU6R-hzra8IAD7mBf-230" vertex="1">
          <mxGeometry y="128" width="140" height="32" as="geometry" />
        </mxCell>
        <mxCell id="QRmiU6R-hzra8IAD7mBf-235" value="Status" style="text;align=left;verticalAlign=top;spacingLeft=4;spacingRight=4;overflow=hidden;rotatable=0;points=[[0,0.5],[1,0.5]];portConstraint=eastwest;rounded=0;shadow=0;html=0;" parent="QRmiU6R-hzra8IAD7mBf-230" vertex="1">
          <mxGeometry y="160" width="140" height="32" as="geometry" />
        </mxCell>
        <mxCell id="QRmiU6R-hzra8IAD7mBf-236" value="Related To" style="text;align=left;verticalAlign=top;spacingLeft=4;spacingRight=4;overflow=hidden;rotatable=0;points=[[0,0.5],[1,0.5]];portConstraint=eastwest;rounded=0;shadow=0;html=0;" parent="QRmiU6R-hzra8IAD7mBf-230" vertex="1">
          <mxGeometry y="192" width="140" height="32" as="geometry" />
        </mxCell>
        <mxCell id="QRmiU6R-hzra8IAD7mBf-237" value="Location" style="text;align=left;verticalAlign=top;spacingLeft=4;spacingRight=4;overflow=hidden;rotatable=0;points=[[0,0.5],[1,0.5]];portConstraint=eastwest;rounded=0;shadow=0;html=0;" parent="QRmiU6R-hzra8IAD7mBf-230" vertex="1">
          <mxGeometry y="224" width="140" height="32" as="geometry" />
        </mxCell>
        <mxCell id="QRmiU6R-hzra8IAD7mBf-238" value="Create Tasks" style="swimlane;fontStyle=2;align=center;verticalAlign=top;childLayout=stackLayout;horizontal=1;startSize=26;horizontalStack=0;resizeParent=1;resizeLast=0;collapsible=1;marginBottom=0;rounded=0;shadow=0;strokeWidth=1;" parent="1" vertex="1">
          <mxGeometry x="-120" y="3530" width="140" height="368" as="geometry">
            <mxRectangle x="230" y="140" width="160" height="26" as="alternateBounds" />
          </mxGeometry>
        </mxCell>
        <mxCell id="QRmiU6R-hzra8IAD7mBf-239" value="Subject" style="text;align=left;verticalAlign=top;spacingLeft=4;spacingRight=4;overflow=hidden;rotatable=0;points=[[0,0.5],[1,0.5]];portConstraint=eastwest;rounded=0;shadow=0;html=0;" parent="QRmiU6R-hzra8IAD7mBf-238" vertex="1">
          <mxGeometry y="26" width="140" height="34" as="geometry" />
        </mxCell>
        <mxCell id="QRmiU6R-hzra8IAD7mBf-240" value="Start Date" style="text;align=left;verticalAlign=top;spacingLeft=4;spacingRight=4;overflow=hidden;rotatable=0;points=[[0,0.5],[1,0.5]];portConstraint=eastwest;rounded=0;shadow=0;html=0;" parent="QRmiU6R-hzra8IAD7mBf-238" vertex="1">
          <mxGeometry y="60" width="140" height="34" as="geometry" />
        </mxCell>
        <mxCell id="QRmiU6R-hzra8IAD7mBf-241" value="Due Date" style="text;align=left;verticalAlign=top;spacingLeft=4;spacingRight=4;overflow=hidden;rotatable=0;points=[[0,0.5],[1,0.5]];portConstraint=eastwest;rounded=0;shadow=0;html=0;" parent="QRmiU6R-hzra8IAD7mBf-238" vertex="1">
          <mxGeometry y="94" width="140" height="34" as="geometry" />
        </mxCell>
        <mxCell id="QRmiU6R-hzra8IAD7mBf-242" value="Duration" style="text;align=left;verticalAlign=top;spacingLeft=4;spacingRight=4;overflow=hidden;rotatable=0;points=[[0,0.5],[1,0.5]];portConstraint=eastwest;rounded=0;shadow=0;html=0;" parent="QRmiU6R-hzra8IAD7mBf-238" vertex="1">
          <mxGeometry y="128" width="140" height="32" as="geometry" />
        </mxCell>
        <mxCell id="QRmiU6R-hzra8IAD7mBf-243" value="Priority" style="text;align=left;verticalAlign=top;spacingLeft=4;spacingRight=4;overflow=hidden;rotatable=0;points=[[0,0.5],[1,0.5]];portConstraint=eastwest;rounded=0;shadow=0;html=0;" parent="QRmiU6R-hzra8IAD7mBf-238" vertex="1">
          <mxGeometry y="160" width="140" height="32" as="geometry" />
        </mxCell>
        <mxCell id="QRmiU6R-hzra8IAD7mBf-244" value="Description" style="text;align=left;verticalAlign=top;spacingLeft=4;spacingRight=4;overflow=hidden;rotatable=0;points=[[0,0.5],[1,0.5]];portConstraint=eastwest;rounded=0;shadow=0;html=0;" parent="QRmiU6R-hzra8IAD7mBf-238" vertex="1">
          <mxGeometry y="192" width="140" height="32" as="geometry" />
        </mxCell>
        <mxCell id="QRmiU6R-hzra8IAD7mBf-245" value="Location" style="text;align=left;verticalAlign=top;spacingLeft=4;spacingRight=4;overflow=hidden;rotatable=0;points=[[0,0.5],[1,0.5]];portConstraint=eastwest;rounded=0;shadow=0;html=0;" parent="QRmiU6R-hzra8IAD7mBf-238" vertex="1">
          <mxGeometry y="224" width="140" height="36" as="geometry" />
        </mxCell>
        <mxCell id="QRmiU6R-hzra8IAD7mBf-246" value="Status" style="text;align=left;verticalAlign=top;spacingLeft=4;spacingRight=4;overflow=hidden;rotatable=0;points=[[0,0.5],[1,0.5]];portConstraint=eastwest;rounded=0;shadow=0;html=0;" parent="QRmiU6R-hzra8IAD7mBf-238" vertex="1">
          <mxGeometry y="260" width="140" height="36" as="geometry" />
        </mxCell>
        <mxCell id="QRmiU6R-hzra8IAD7mBf-247" value="Related To" style="text;align=left;verticalAlign=top;spacingLeft=4;spacingRight=4;overflow=hidden;rotatable=0;points=[[0,0.5],[1,0.5]];portConstraint=eastwest;rounded=0;shadow=0;html=0;" parent="QRmiU6R-hzra8IAD7mBf-238" vertex="1">
          <mxGeometry y="296" width="140" height="36" as="geometry" />
        </mxCell>
        <mxCell id="QRmiU6R-hzra8IAD7mBf-248" value="Contact" style="text;align=left;verticalAlign=top;spacingLeft=4;spacingRight=4;overflow=hidden;rotatable=0;points=[[0,0.5],[1,0.5]];portConstraint=eastwest;rounded=0;shadow=0;html=0;" parent="QRmiU6R-hzra8IAD7mBf-238" vertex="1">
          <mxGeometry y="332" width="140" height="36" as="geometry" />
        </mxCell>
        <mxCell id="QRmiU6R-hzra8IAD7mBf-307" value="Login" style="swimlane;fontStyle=2;align=center;verticalAlign=top;childLayout=stackLayout;horizontal=1;startSize=26;horizontalStack=0;resizeParent=1;resizeLast=0;collapsible=1;marginBottom=0;rounded=0;shadow=0;strokeWidth=1;" parent="1" vertex="1">
          <mxGeometry x="-900" y="840" width="140" height="90" as="geometry">
            <mxRectangle x="230" y="140" width="160" height="26" as="alternateBounds" />
          </mxGeometry>
        </mxCell>
        <mxCell id="QRmiU6R-hzra8IAD7mBf-308" value="emailÂ Â Â " style="text;align=left;verticalAlign=top;spacingLeft=4;spacingRight=4;overflow=hidden;rotatable=0;points=[[0,0.5],[1,0.5]];portConstraint=eastwest;rounded=0;shadow=0;html=0;" parent="QRmiU6R-hzra8IAD7mBf-307" vertex="1">
          <mxGeometry y="26" width="140" height="26" as="geometry" />
        </mxCell>
        <mxCell id="QRmiU6R-hzra8IAD7mBf-309" value="password" style="text;align=left;verticalAlign=top;spacingLeft=4;spacingRight=4;overflow=hidden;rotatable=0;points=[[0,0.5],[1,0.5]];portConstraint=eastwest;rounded=0;shadow=0;html=0;" parent="QRmiU6R-hzra8IAD7mBf-307" vertex="1">
          <mxGeometry y="52" width="140" height="28" as="geometry" />
        </mxCell>
        <mxCell id="QRmiU6R-hzra8IAD7mBf-310" value="Login info" style="swimlane;fontStyle=0;align=center;verticalAlign=top;childLayout=stackLayout;horizontal=1;startSize=30;horizontalStack=0;resizeParent=1;resizeLast=0;collapsible=1;marginBottom=0;rounded=0;shadow=0;strokeWidth=1;" parent="1" vertex="1">
          <mxGeometry x="-1090" y="1090" width="160" height="116" as="geometry">
            <mxRectangle x="120" y="360" width="160" height="26" as="alternateBounds" />
          </mxGeometry>
        </mxCell>
        <mxCell id="QRmiU6R-hzra8IAD7mBf-311" value="emailÂ " style="text;align=left;verticalAlign=top;spacingLeft=4;spacingRight=4;overflow=hidden;rotatable=0;points=[[0,0.5],[1,0.5]];portConstraint=eastwest;" parent="QRmiU6R-hzra8IAD7mBf-310" vertex="1">
          <mxGeometry y="30" width="160" height="26" as="geometry" />
        </mxCell>
        <mxCell id="QRmiU6R-hzra8IAD7mBf-312" value="username" style="text;align=left;verticalAlign=top;spacingLeft=4;spacingRight=4;overflow=hidden;rotatable=0;points=[[0,0.5],[1,0.5]];portConstraint=eastwest;rounded=0;shadow=0;html=0;" parent="QRmiU6R-hzra8IAD7mBf-310" vertex="1">
          <mxGeometry y="56" width="160" height="26" as="geometry" />
        </mxCell>
        <mxCell id="QRmiU6R-hzra8IAD7mBf-313" value="" style="line;html=1;strokeWidth=1;align=left;verticalAlign=middle;spacingTop=-1;spacingLeft=3;spacingRight=3;rotatable=0;labelPosition=right;points=[];portConstraint=eastwest;" parent="QRmiU6R-hzra8IAD7mBf-310" vertex="1">
          <mxGeometry y="82" width="160" height="8" as="geometry" />
        </mxCell>
        <mxCell id="QRmiU6R-hzra8IAD7mBf-314" value="password" style="text;align=left;verticalAlign=top;spacingLeft=4;spacingRight=4;overflow=hidden;rotatable=0;points=[[0,0.5],[1,0.5]];portConstraint=eastwest;fontStyle=4" parent="QRmiU6R-hzra8IAD7mBf-310" vertex="1">
          <mxGeometry y="90" width="160" height="26" as="geometry" />
        </mxCell>
        <mxCell id="QRmiU6R-hzra8IAD7mBf-315" value="" style="endArrow=block;endSize=10;endFill=0;shadow=0;strokeWidth=1;rounded=0;curved=0;edgeStyle=elbowEdgeStyle;elbow=vertical;" parent="1" source="QRmiU6R-hzra8IAD7mBf-310" target="QRmiU6R-hzra8IAD7mBf-307" edge="1">
          <mxGeometry width="160" relative="1" as="geometry">
            <mxPoint x="-900" y="933" as="sourcePoint" />
            <mxPoint x="-900" y="933" as="targetPoint" />
          </mxGeometry>
        </mxCell>
        <mxCell id="QRmiU6R-hzra8IAD7mBf-316" value="Profile" style="swimlane;fontStyle=0;align=center;verticalAlign=top;childLayout=stackLayout;horizontal=1;startSize=26;horizontalStack=0;resizeParent=1;resizeLast=0;collapsible=1;marginBottom=0;rounded=0;shadow=0;strokeWidth=1;" parent="1" vertex="1">
          <mxGeometry x="-1090" y="1300" width="160" height="170" as="geometry">
            <mxRectangle x="340" y="380" width="170" height="26" as="alternateBounds" />
          </mxGeometry>
        </mxCell>
        <mxCell id="QRmiU6R-hzra8IAD7mBf-317" value="email&#xa;" style="text;align=left;verticalAlign=top;spacingLeft=4;spacingRight=4;overflow=hidden;rotatable=0;points=[[0,0.5],[1,0.5]];portConstraint=eastwest;" parent="QRmiU6R-hzra8IAD7mBf-316" vertex="1">
          <mxGeometry y="26" width="160" height="26" as="geometry" />
        </mxCell>
        <mxCell id="QRmiU6R-hzra8IAD7mBf-318" value="" style="line;html=1;strokeWidth=1;align=left;verticalAlign=middle;spacingTop=-1;spacingLeft=3;spacingRight=3;rotatable=0;labelPosition=right;points=[];portConstraint=eastwest;" parent="QRmiU6R-hzra8IAD7mBf-316" vertex="1">
          <mxGeometry y="52" width="160" height="8" as="geometry" />
        </mxCell>
        <mxCell id="QRmiU6R-hzra8IAD7mBf-319" value="Emp id" style="text;align=left;verticalAlign=top;spacingLeft=4;spacingRight=4;overflow=hidden;rotatable=0;points=[[0,0.5],[1,0.5]];portConstraint=eastwest;" parent="QRmiU6R-hzra8IAD7mBf-316" vertex="1">
          <mxGeometry y="60" width="160" height="26" as="geometry" />
        </mxCell>
        <mxCell id="QRmiU6R-hzra8IAD7mBf-320" value="Branch" style="text;align=left;verticalAlign=top;spacingLeft=4;spacingRight=4;overflow=hidden;rotatable=0;points=[[0,0.5],[1,0.5]];portConstraint=eastwest;" parent="QRmiU6R-hzra8IAD7mBf-316" vertex="1">
          <mxGeometry y="86" width="160" height="26" as="geometry" />
        </mxCell>
        <mxCell id="QRmiU6R-hzra8IAD7mBf-321" value="DOB" style="text;align=left;verticalAlign=top;spacingLeft=4;spacingRight=4;overflow=hidden;rotatable=0;points=[[0,0.5],[1,0.5]];portConstraint=eastwest;" parent="QRmiU6R-hzra8IAD7mBf-316" vertex="1">
          <mxGeometry y="112" width="160" height="26" as="geometry" />
        </mxCell>
        <mxCell id="QRmiU6R-hzra8IAD7mBf-323" value="" style="endArrow=classic;startArrow=classic;html=1;rounded=0;entryX=0.535;entryY=0;entryDx=0;entryDy=0;exitX=0.535;exitY=0.977;exitDx=0;exitDy=0;exitPerimeter=0;entryPerimeter=0;" parent="1" source="QRmiU6R-hzra8IAD7mBf-314" target="QRmiU6R-hzra8IAD7mBf-316" edge="1">
          <mxGeometry width="50" height="50" relative="1" as="geometry">
            <mxPoint x="-750" y="1000" as="sourcePoint" />
            <mxPoint x="-700" y="950" as="targetPoint" />
            <Array as="points" />
          </mxGeometry>
        </mxCell>
        <mxCell id="QRmiU6R-hzra8IAD7mBf-324" value="one to one relation" style="text;html=1;align=center;verticalAlign=middle;whiteSpace=wrap;rounded=0;" parent="1" vertex="1">
          <mxGeometry x="-1000" y="1240" width="60" height="30" as="geometry" />
        </mxCell>
        <mxCell id="QRmiU6R-hzra8IAD7mBf-325" value="Register" style="swimlane;fontStyle=2;align=center;verticalAlign=top;childLayout=stackLayout;horizontal=1;startSize=26;horizontalStack=0;resizeParent=1;resizeLast=0;collapsible=1;marginBottom=0;rounded=0;shadow=0;strokeWidth=1;" parent="1" vertex="1">
          <mxGeometry x="-1180" y="770" width="140" height="230" as="geometry">
            <mxRectangle x="230" y="140" width="160" height="26" as="alternateBounds" />
          </mxGeometry>
        </mxCell>
        <mxCell id="QRmiU6R-hzra8IAD7mBf-326" value="emailÂ Â Â " style="text;align=left;verticalAlign=top;spacingLeft=4;spacingRight=4;overflow=hidden;rotatable=0;points=[[0,0.5],[1,0.5]];portConstraint=eastwest;rounded=0;shadow=0;html=0;" parent="QRmiU6R-hzra8IAD7mBf-325" vertex="1">
          <mxGeometry y="26" width="140" height="26" as="geometry" />
        </mxCell>
        <mxCell id="QRmiU6R-hzra8IAD7mBf-327" value="password1" style="text;align=left;verticalAlign=top;spacingLeft=4;spacingRight=4;overflow=hidden;rotatable=0;points=[[0,0.5],[1,0.5]];portConstraint=eastwest;rounded=0;shadow=0;html=0;" parent="QRmiU6R-hzra8IAD7mBf-325" vertex="1">
          <mxGeometry y="52" width="140" height="28" as="geometry" />
        </mxCell>
        <mxCell id="QRmiU6R-hzra8IAD7mBf-328" value="password2" style="text;align=left;verticalAlign=top;spacingLeft=4;spacingRight=4;overflow=hidden;rotatable=0;points=[[0,0.5],[1,0.5]];portConstraint=eastwest;rounded=0;shadow=0;html=0;" parent="QRmiU6R-hzra8IAD7mBf-325" vertex="1">
          <mxGeometry y="80" width="140" height="28" as="geometry" />
        </mxCell>
        <mxCell id="QRmiU6R-hzra8IAD7mBf-329" value="username" style="text;align=left;verticalAlign=top;spacingLeft=4;spacingRight=4;overflow=hidden;rotatable=0;points=[[0,0.5],[1,0.5]];portConstraint=eastwest;rounded=0;shadow=0;html=0;" parent="QRmiU6R-hzra8IAD7mBf-325" vertex="1">
          <mxGeometry y="108" width="140" height="38" as="geometry" />
        </mxCell>
        <mxCell id="QRmiU6R-hzra8IAD7mBf-330" value="" style="line;html=1;strokeWidth=1;align=left;verticalAlign=middle;spacingTop=-1;spacingLeft=3;spacingRight=3;rotatable=0;labelPosition=right;points=[];portConstraint=eastwest;" parent="QRmiU6R-hzra8IAD7mBf-325" vertex="1">
          <mxGeometry y="146" width="140" height="20" as="geometry" />
        </mxCell>
        <mxCell id="QRmiU6R-hzra8IAD7mBf-331" value="Emp id" style="text;align=left;verticalAlign=top;spacingLeft=4;spacingRight=4;overflow=hidden;rotatable=0;points=[[0,0.5],[1,0.5]];portConstraint=eastwest;rounded=0;shadow=0;html=0;" parent="QRmiU6R-hzra8IAD7mBf-325" vertex="1">
          <mxGeometry y="166" width="140" height="24" as="geometry" />
        </mxCell>
        <mxCell id="QRmiU6R-hzra8IAD7mBf-332" value="Emp details" style="text;align=left;verticalAlign=top;spacingLeft=4;spacingRight=4;overflow=hidden;rotatable=0;points=[[0,0.5],[1,0.5]];portConstraint=eastwest;rounded=0;shadow=0;html=0;" parent="QRmiU6R-hzra8IAD7mBf-325" vertex="1">
          <mxGeometry y="190" width="140" height="24" as="geometry" />
        </mxCell>
        <mxCell id="QRmiU6R-hzra8IAD7mBf-333" value="" style="endArrow=classic;html=1;rounded=0;exitX=0.5;exitY=1;exitDx=0;exitDy=0;entryX=0.5;entryY=0;entryDx=0;entryDy=0;" parent="1" source="QRmiU6R-hzra8IAD7mBf-325" target="QRmiU6R-hzra8IAD7mBf-344" edge="1">
          <mxGeometry width="50" height="50" relative="1" as="geometry">
            <mxPoint x="-750" y="1100" as="sourcePoint" />
            <mxPoint x="-1320" y="1000" as="targetPoint" />
            <Array as="points">
              <mxPoint x="-1110" y="1020" />
              <mxPoint x="-1200" y="1020" />
              <mxPoint x="-1200" y="960" />
              <mxPoint x="-1320" y="960" />
            </Array>
          </mxGeometry>
        </mxCell>
        <mxCell id="QRmiU6R-hzra8IAD7mBf-334" value="" style="endArrow=classic;html=1;rounded=0;exitX=0.5;exitY=1;exitDx=0;exitDy=0;entryX=0.25;entryY=0;entryDx=0;entryDy=0;" parent="1" source="QRmiU6R-hzra8IAD7mBf-344" target="QRmiU6R-hzra8IAD7mBf-310" edge="1">
          <mxGeometry width="50" height="50" relative="1" as="geometry">
            <mxPoint x="-1320" y="1060" as="sourcePoint" />
            <mxPoint x="-1130" y="910" as="targetPoint" />
            <Array as="points">
              <mxPoint x="-1320" y="1100" />
              <mxPoint x="-1210" y="1100" />
              <mxPoint x="-1210" y="1050" />
              <mxPoint x="-1050" y="1050" />
            </Array>
          </mxGeometry>
        </mxCell>
        <mxCell id="QRmiU6R-hzra8IAD7mBf-335" value="Through mail" style="swimlane;fontStyle=2;align=center;verticalAlign=top;childLayout=stackLayout;horizontal=1;startSize=26;horizontalStack=0;resizeParent=1;resizeLast=0;collapsible=1;marginBottom=0;rounded=0;shadow=0;strokeWidth=1;" parent="1" vertex="1">
          <mxGeometry x="-870" y="1040" width="140" height="60" as="geometry">
            <mxRectangle x="230" y="140" width="160" height="26" as="alternateBounds" />
          </mxGeometry>
        </mxCell>
        <mxCell id="QRmiU6R-hzra8IAD7mBf-336" value="emailÂ Â Â " style="text;align=left;verticalAlign=top;spacingLeft=4;spacingRight=4;overflow=hidden;rotatable=0;points=[[0,0.5],[1,0.5]];portConstraint=eastwest;rounded=0;shadow=0;html=0;" parent="QRmiU6R-hzra8IAD7mBf-335" vertex="1">
          <mxGeometry y="26" width="140" height="26" as="geometry" />
        </mxCell>
        <mxCell id="QRmiU6R-hzra8IAD7mBf-337" value="" style="endArrow=classic;html=1;rounded=0;entryX=0.5;entryY=0;entryDx=0;entryDy=0;exitX=0.75;exitY=1;exitDx=0;exitDy=0;" parent="1" source="QRmiU6R-hzra8IAD7mBf-307" target="QRmiU6R-hzra8IAD7mBf-335" edge="1">
          <mxGeometry width="50" height="50" relative="1" as="geometry">
            <mxPoint x="-830" y="1060" as="sourcePoint" />
            <mxPoint x="-780" y="1010" as="targetPoint" />
            <Array as="points">
              <mxPoint x="-795" y="1020" />
            </Array>
          </mxGeometry>
        </mxCell>
        <mxCell id="QRmiU6R-hzra8IAD7mBf-338" value="&lt;span style=&quot;text-wrap: nowrap;&quot;&gt;&lt;i&gt;Forget&lt;/i&gt;&lt;/span&gt;&lt;div&gt;&lt;span style=&quot;text-wrap: nowrap;&quot;&gt;&lt;i&gt;&amp;nbsp;password&lt;/i&gt;&lt;/span&gt;&lt;/div&gt;" style="text;html=1;align=center;verticalAlign=middle;whiteSpace=wrap;rounded=0;" parent="1" vertex="1">
          <mxGeometry x="-790" y="950" width="60" height="30" as="geometry" />
        </mxCell>
        <mxCell id="QRmiU6R-hzra8IAD7mBf-339" value="" style="endArrow=classic;html=1;rounded=0;entryX=1;entryY=0.5;entryDx=0;entryDy=0;exitX=0.5;exitY=1;exitDx=0;exitDy=0;" parent="1" source="QRmiU6R-hzra8IAD7mBf-335" target="QRmiU6R-hzra8IAD7mBf-314" edge="1">
          <mxGeometry width="50" height="50" relative="1" as="geometry">
            <mxPoint x="-830" y="1060" as="sourcePoint" />
            <mxPoint x="-780" y="1010" as="targetPoint" />
            <Array as="points">
              <mxPoint x="-800" y="1190" />
            </Array>
          </mxGeometry>
        </mxCell>
        <mxCell id="QRmiU6R-hzra8IAD7mBf-340" value="&lt;span style=&quot;text-wrap: nowrap;&quot;&gt;&lt;i&gt;password change&lt;/i&gt;&lt;/span&gt;" style="text;html=1;align=center;verticalAlign=middle;whiteSpace=wrap;rounded=0;" parent="1" vertex="1">
          <mxGeometry x="-830" y="1190" width="60" height="30" as="geometry" />
        </mxCell>
        <mxCell id="QRmiU6R-hzra8IAD7mBf-341" value="A" style="ellipse;whiteSpace=wrap;html=1;aspect=fixed;" parent="1" vertex="1">
          <mxGeometry x="-855" y="710" width="50" height="50" as="geometry" />
        </mxCell>
        <mxCell id="QRmiU6R-hzra8IAD7mBf-342" value="" style="endArrow=classic;html=1;rounded=0;exitX=0.5;exitY=1;exitDx=0;exitDy=0;entryX=0.5;entryY=0;entryDx=0;entryDy=0;" parent="1" source="QRmiU6R-hzra8IAD7mBf-341" target="QRmiU6R-hzra8IAD7mBf-307" edge="1">
          <mxGeometry width="50" height="50" relative="1" as="geometry">
            <mxPoint x="-750" y="720" as="sourcePoint" />
            <mxPoint x="-700" y="670" as="targetPoint" />
          </mxGeometry>
        </mxCell>
        <mxCell id="QRmiU6R-hzra8IAD7mBf-343" value="Verify email" style="text;html=1;align=center;verticalAlign=middle;whiteSpace=wrap;rounded=0;" parent="1" vertex="1">
          <mxGeometry x="-1310" y="930" width="100" height="30" as="geometry" />
        </mxCell>
        <mxCell id="QRmiU6R-hzra8IAD7mBf-344" value="Email verified" style="rhombus;whiteSpace=wrap;html=1;" parent="1" vertex="1">
          <mxGeometry x="-1360" y="1000" width="80" height="80" as="geometry" />
        </mxCell>
        <mxCell id="QRmiU6R-hzra8IAD7mBf-345" value="yes" style="text;html=1;align=center;verticalAlign=middle;whiteSpace=wrap;rounded=0;" parent="1" vertex="1">
          <mxGeometry x="-1370" y="1070" width="60" height="30" as="geometry" />
        </mxCell>
        <mxCell id="QRmiU6R-hzra8IAD7mBf-346" value="Update user data to DB" style="text;html=1;align=center;verticalAlign=middle;whiteSpace=wrap;rounded=0;" parent="1" vertex="1">
          <mxGeometry x="-1300" y="1100" width="60" height="50" as="geometry" />
        </mxCell>
        <mxCell id="QRmiU6R-hzra8IAD7mBf-347" value="Fetch user login detail" style="text;html=1;align=center;verticalAlign=middle;whiteSpace=wrap;rounded=0;" parent="1" vertex="1">
          <mxGeometry x="-980" y="980" width="110" height="30" as="geometry" />
        </mxCell>
        <mxCell id="QRmiU6R-hzra8IAD7mBf-348" value="" style="endArrow=classic;html=1;rounded=0;exitX=0.25;exitY=1;exitDx=0;exitDy=0;entryX=0.5;entryY=0;entryDx=0;entryDy=0;" parent="1" source="QRmiU6R-hzra8IAD7mBf-307" target="QRmiU6R-hzra8IAD7mBf-325" edge="1">
          <mxGeometry width="50" height="50" relative="1" as="geometry">
            <mxPoint x="-840" y="990" as="sourcePoint" />
            <mxPoint x="-790" y="940" as="targetPoint" />
            <Array as="points">
              <mxPoint x="-865" y="960" />
              <mxPoint x="-960" y="960" />
              <mxPoint x="-960" y="720" />
              <mxPoint x="-1110" y="720" />
            </Array>
          </mxGeometry>
        </mxCell>
        <mxCell id="QRmiU6R-hzra8IAD7mBf-349" value="If no account&amp;nbsp;" style="text;html=1;align=center;verticalAlign=middle;whiteSpace=wrap;rounded=0;" parent="1" vertex="1">
          <mxGeometry x="-1080" y="690" width="60" height="30" as="geometry" />
        </mxCell>
        <mxCell id="QRmiU6R-hzra8IAD7mBf-351" style="edgeStyle=orthogonalEdgeStyle;rounded=0;orthogonalLoop=1;jettySize=auto;html=1;exitX=1;exitY=0.5;exitDx=0;exitDy=0;entryX=-0.003;entryY=0.058;entryDx=0;entryDy=0;entryPerimeter=0;" parent="1" source="QRmiU6R-hzra8IAD7mBf-308" target="QRmiU6R-hzra8IAD7mBf-1" edge="1">
          <mxGeometry relative="1" as="geometry" />
        </mxCell>
        <mxCell id="QRmiU6R-hzra8IAD7mBf-352" value="If login Successful" style="text;html=1;align=center;verticalAlign=middle;whiteSpace=wrap;rounded=0;" parent="1" vertex="1">
          <mxGeometry x="-730" y="820" width="60" height="30" as="geometry" />
        </mxCell>
        <mxCell id="QRmiU6R-hzra8IAD7mBf-355" style="edgeStyle=orthogonalEdgeStyle;rounded=0;orthogonalLoop=1;jettySize=auto;html=1;entryX=0.416;entryY=0.004;entryDx=0;entryDy=0;entryPerimeter=0;" parent="1" source="QRmiU6R-hzra8IAD7mBf-5" target="QRmiU6R-hzra8IAD7mBf-16" edge="1">
          <mxGeometry relative="1" as="geometry">
            <mxPoint x="-370" y="-280" as="targetPoint" />
          </mxGeometry>
        </mxCell>
        <mxCell id="QRmiU6R-hzra8IAD7mBf-356" style="edgeStyle=orthogonalEdgeStyle;rounded=0;orthogonalLoop=1;jettySize=auto;html=1;entryX=0.5;entryY=0;entryDx=0;entryDy=0;" parent="1" source="QRmiU6R-hzra8IAD7mBf-17" target="QRmiU6R-hzra8IAD7mBf-27" edge="1">
          <mxGeometry relative="1" as="geometry" />
        </mxCell>
        <mxCell id="QRmiU6R-hzra8IAD7mBf-357" style="edgeStyle=orthogonalEdgeStyle;rounded=0;orthogonalLoop=1;jettySize=auto;html=1;entryX=0.5;entryY=1;entryDx=0;entryDy=0;" parent="1" source="QRmiU6R-hzra8IAD7mBf-18" target="QRmiU6R-hzra8IAD7mBf-48" edge="1">
          <mxGeometry relative="1" as="geometry">
            <mxPoint x="-40" y="210" as="targetPoint" />
          </mxGeometry>
        </mxCell>
        <mxCell id="QRmiU6R-hzra8IAD7mBf-358" style="edgeStyle=orthogonalEdgeStyle;rounded=0;orthogonalLoop=1;jettySize=auto;html=1;entryX=0.5;entryY=0;entryDx=0;entryDy=0;" parent="1" source="QRmiU6R-hzra8IAD7mBf-49" target="QRmiU6R-hzra8IAD7mBf-54" edge="1">
          <mxGeometry relative="1" as="geometry" />
        </mxCell>
        <mxCell id="QRmiU6R-hzra8IAD7mBf-362" style="edgeStyle=orthogonalEdgeStyle;rounded=0;orthogonalLoop=1;jettySize=auto;html=1;exitX=1;exitY=0.5;exitDx=0;exitDy=0;entryX=0.5;entryY=0;entryDx=0;entryDy=0;" parent="1" source="QRmiU6R-hzra8IAD7mBf-13" target="QRmiU6R-hzra8IAD7mBf-80" edge="1">
          <mxGeometry relative="1" as="geometry">
            <mxPoint x="-380" y="400" as="targetPoint" />
            <Array as="points">
              <mxPoint x="-370" y="916" />
              <mxPoint x="-370" y="410" />
              <mxPoint x="-270" y="410" />
            </Array>
          </mxGeometry>
        </mxCell>
        <mxCell id="QRmiU6R-hzra8IAD7mBf-364" style="edgeStyle=orthogonalEdgeStyle;rounded=0;orthogonalLoop=1;jettySize=auto;html=1;entryX=0.558;entryY=-0.016;entryDx=0;entryDy=0;entryPerimeter=0;" parent="1" source="QRmiU6R-hzra8IAD7mBf-81" target="QRmiU6R-hzra8IAD7mBf-84" edge="1">
          <mxGeometry relative="1" as="geometry">
            <mxPoint y="360" as="targetPoint" />
            <Array as="points">
              <mxPoint x="-80" y="473" />
              <mxPoint x="-80" y="360" />
              <mxPoint x="118" y="360" />
            </Array>
          </mxGeometry>
        </mxCell>
        <mxCell id="QRmiU6R-hzra8IAD7mBf-365" style="edgeStyle=orthogonalEdgeStyle;rounded=0;orthogonalLoop=1;jettySize=auto;html=1;entryX=0.5;entryY=1;entryDx=0;entryDy=0;" parent="1" source="QRmiU6R-hzra8IAD7mBf-82" target="QRmiU6R-hzra8IAD7mBf-98" edge="1">
          <mxGeometry relative="1" as="geometry">
            <mxPoint y="760" as="targetPoint" />
          </mxGeometry>
        </mxCell>
        <mxCell id="QRmiU6R-hzra8IAD7mBf-366" style="edgeStyle=orthogonalEdgeStyle;rounded=0;orthogonalLoop=1;jettySize=auto;html=1;entryX=0.5;entryY=0;entryDx=0;entryDy=0;" parent="1" source="QRmiU6R-hzra8IAD7mBf-101" target="QRmiU6R-hzra8IAD7mBf-92" edge="1">
          <mxGeometry relative="1" as="geometry" />
        </mxCell>
        <mxCell id="QRmiU6R-hzra8IAD7mBf-367" style="edgeStyle=orthogonalEdgeStyle;rounded=0;orthogonalLoop=1;jettySize=auto;html=1;entryX=0;entryY=0.5;entryDx=0;entryDy=0;" parent="1" source="QRmiU6R-hzra8IAD7mBf-11" target="QRmiU6R-hzra8IAD7mBf-106" edge="1">
          <mxGeometry relative="1" as="geometry" />
        </mxCell>
        <mxCell id="QRmiU6R-hzra8IAD7mBf-369" style="edgeStyle=orthogonalEdgeStyle;rounded=0;orthogonalLoop=1;jettySize=auto;html=1;entryX=0.5;entryY=0;entryDx=0;entryDy=0;" parent="1" source="QRmiU6R-hzra8IAD7mBf-105" target="QRmiU6R-hzra8IAD7mBf-108" edge="1">
          <mxGeometry relative="1" as="geometry" />
        </mxCell>
        <mxCell id="QRmiU6R-hzra8IAD7mBf-370" style="edgeStyle=orthogonalEdgeStyle;rounded=0;orthogonalLoop=1;jettySize=auto;html=1;entryX=0.5;entryY=0;entryDx=0;entryDy=0;exitX=1;exitY=0.5;exitDx=0;exitDy=0;" parent="1" source="QRmiU6R-hzra8IAD7mBf-106" target="QRmiU6R-hzra8IAD7mBf-120" edge="1">
          <mxGeometry relative="1" as="geometry">
            <Array as="points">
              <mxPoint x="-80" y="946" />
              <mxPoint x="-80" y="1130" />
              <mxPoint x="110" y="1130" />
            </Array>
          </mxGeometry>
        </mxCell>
        <mxCell id="QRmiU6R-hzra8IAD7mBf-372" style="edgeStyle=orthogonalEdgeStyle;rounded=0;orthogonalLoop=1;jettySize=auto;html=1;entryX=0.5;entryY=0;entryDx=0;entryDy=0;" parent="1" source="QRmiU6R-hzra8IAD7mBf-121" target="QRmiU6R-hzra8IAD7mBf-125" edge="1">
          <mxGeometry relative="1" as="geometry" />
        </mxCell>
        <mxCell id="QRmiU6R-hzra8IAD7mBf-373" style="edgeStyle=orthogonalEdgeStyle;rounded=0;orthogonalLoop=1;jettySize=auto;html=1;entryX=0;entryY=0.5;entryDx=0;entryDy=0;" parent="1" source="QRmiU6R-hzra8IAD7mBf-4" target="QRmiU6R-hzra8IAD7mBf-133" edge="1">
          <mxGeometry relative="1" as="geometry">
            <Array as="points">
              <mxPoint x="-370" y="976" />
              <mxPoint x="-370" y="1436" />
            </Array>
          </mxGeometry>
        </mxCell>
        <mxCell id="QRmiU6R-hzra8IAD7mBf-374" style="edgeStyle=orthogonalEdgeStyle;rounded=0;orthogonalLoop=1;jettySize=auto;html=1;entryX=0.5;entryY=0;entryDx=0;entryDy=0;" parent="1" source="QRmiU6R-hzra8IAD7mBf-134" target="QRmiU6R-hzra8IAD7mBf-137" edge="1">
          <mxGeometry relative="1" as="geometry" />
        </mxCell>
        <mxCell id="QRmiU6R-hzra8IAD7mBf-375" style="edgeStyle=orthogonalEdgeStyle;rounded=0;orthogonalLoop=1;jettySize=auto;html=1;entryX=0.5;entryY=0;entryDx=0;entryDy=0;" parent="1" source="QRmiU6R-hzra8IAD7mBf-135" target="QRmiU6R-hzra8IAD7mBf-145" edge="1">
          <mxGeometry relative="1" as="geometry">
            <Array as="points">
              <mxPoint x="-40" y="1450" />
              <mxPoint x="-40" y="1740" />
            </Array>
          </mxGeometry>
        </mxCell>
        <mxCell id="QRmiU6R-hzra8IAD7mBf-376" style="edgeStyle=orthogonalEdgeStyle;rounded=0;orthogonalLoop=1;jettySize=auto;html=1;entryX=0.5;entryY=0;entryDx=0;entryDy=0;" parent="1" source="QRmiU6R-hzra8IAD7mBf-146" target="QRmiU6R-hzra8IAD7mBf-156" edge="1">
          <mxGeometry relative="1" as="geometry" />
        </mxCell>
        <mxCell id="QRmiU6R-hzra8IAD7mBf-377" style="edgeStyle=orthogonalEdgeStyle;rounded=0;orthogonalLoop=1;jettySize=auto;html=1;entryX=0.5;entryY=0;entryDx=0;entryDy=0;" parent="1" source="QRmiU6R-hzra8IAD7mBf-14" target="QRmiU6R-hzra8IAD7mBf-165" edge="1">
          <mxGeometry relative="1" as="geometry">
            <Array as="points">
              <mxPoint x="-420" y="1005" />
              <mxPoint x="-420" y="2090" />
            </Array>
          </mxGeometry>
        </mxCell>
        <mxCell id="QRmiU6R-hzra8IAD7mBf-380" style="edgeStyle=orthogonalEdgeStyle;rounded=0;orthogonalLoop=1;jettySize=auto;html=1;entryX=0.5;entryY=0;entryDx=0;entryDy=0;exitX=1;exitY=0.5;exitDx=0;exitDy=0;" parent="1" source="QRmiU6R-hzra8IAD7mBf-166" target="QRmiU6R-hzra8IAD7mBf-169" edge="1">
          <mxGeometry relative="1" as="geometry" />
        </mxCell>
        <mxCell id="QRmiU6R-hzra8IAD7mBf-381" style="edgeStyle=orthogonalEdgeStyle;rounded=0;orthogonalLoop=1;jettySize=auto;html=1;entryX=0;entryY=0.5;entryDx=0;entryDy=0;" parent="1" source="QRmiU6R-hzra8IAD7mBf-167" target="QRmiU6R-hzra8IAD7mBf-179" edge="1">
          <mxGeometry relative="1" as="geometry" />
        </mxCell>
        <mxCell id="QRmiU6R-hzra8IAD7mBf-384" style="edgeStyle=orthogonalEdgeStyle;rounded=0;orthogonalLoop=1;jettySize=auto;html=1;entryX=0.5;entryY=0;entryDx=0;entryDy=0;" parent="1" source="QRmiU6R-hzra8IAD7mBf-209" target="QRmiU6R-hzra8IAD7mBf-212" edge="1">
          <mxGeometry relative="1" as="geometry" />
        </mxCell>
        <mxCell id="QRmiU6R-hzra8IAD7mBf-386" style="edgeStyle=orthogonalEdgeStyle;rounded=0;orthogonalLoop=1;jettySize=auto;html=1;entryX=0.5;entryY=0;entryDx=0;entryDy=0;" parent="1" source="QRmiU6R-hzra8IAD7mBf-210" target="QRmiU6R-hzra8IAD7mBf-230" edge="1">
          <mxGeometry relative="1" as="geometry">
            <Array as="points">
              <mxPoint x="-160" y="3166" />
              <mxPoint x="-160" y="3140" />
              <mxPoint x="-50" y="3140" />
            </Array>
          </mxGeometry>
        </mxCell>
        <mxCell id="QRmiU6R-hzra8IAD7mBf-387" style="edgeStyle=orthogonalEdgeStyle;rounded=0;orthogonalLoop=1;jettySize=auto;html=1;entryX=0.5;entryY=0;entryDx=0;entryDy=0;" parent="1" source="QRmiU6R-hzra8IAD7mBf-211" target="QRmiU6R-hzra8IAD7mBf-238" edge="1">
          <mxGeometry relative="1" as="geometry">
            <mxPoint x="-150" y="3440" as="targetPoint" />
            <Array as="points">
              <mxPoint x="-160" y="3196" />
              <mxPoint x="-160" y="3490" />
            </Array>
          </mxGeometry>
        </mxCell>
        <mxCell id="QRmiU6R-hzra8IAD7mBf-388" style="edgeStyle=orthogonalEdgeStyle;rounded=0;orthogonalLoop=1;jettySize=auto;html=1;entryX=0.5;entryY=0;entryDx=0;entryDy=0;" parent="1" source="QRmiU6R-hzra8IAD7mBf-353" target="QRmiU6R-hzra8IAD7mBf-208" edge="1">
          <mxGeometry relative="1" as="geometry">
            <Array as="points">
              <mxPoint x="-450" y="1035" />
              <mxPoint x="-450" y="3030" />
              <mxPoint x="-270" y="3030" />
            </Array>
          </mxGeometry>
        </mxCell>
        <mxCell id="HYqggA-Efa8sCDrEcygq-1" value="Data Mining" style="text;html=1;align=center;verticalAlign=middle;whiteSpace=wrap;rounded=0;rotation=-90;" parent="1" vertex="1">
          <mxGeometry x="-530" y="220" width="180" height="30" as="geometry" />
        </mxCell>
        <mxCell id="HYqggA-Efa8sCDrEcygq-2" value="Contact" style="text;html=1;align=center;verticalAlign=middle;whiteSpace=wrap;rounded=0;rotation=-90;" parent="1" vertex="1">
          <mxGeometry x="-440" y="665" width="180" height="30" as="geometry" />
        </mxCell>
        <mxCell id="HYqggA-Efa8sCDrEcygq-3" value="Leads" style="text;html=1;align=center;verticalAlign=middle;whiteSpace=wrap;rounded=0;rotation=0;" parent="1" vertex="1">
          <mxGeometry x="-510" y="920" width="180" height="30" as="geometry" />
        </mxCell>
        <mxCell id="HYqggA-Efa8sCDrEcygq-4" value="Opportunity" style="text;html=1;align=center;verticalAlign=middle;whiteSpace=wrap;rounded=0;rotation=-90;" parent="1" vertex="1">
          <mxGeometry x="-470" y="1139" width="180" height="30" as="geometry" />
        </mxCell>
        <mxCell id="HYqggA-Efa8sCDrEcygq-6" value="&lt;span style=&quot;color: rgb(0, 0, 0); font-family: Helvetica; font-size: 12px; font-style: normal; font-variant-ligatures: normal; font-variant-caps: normal; font-weight: 400; letter-spacing: normal; orphans: 2; text-align: left; text-indent: 0px; text-transform: none; widows: 2; word-spacing: 0px; -webkit-text-stroke-width: 0px; white-space: nowrap; background-color: rgb(251, 251, 251); text-decoration-thickness: initial; text-decoration-style: initial; text-decoration-color: initial; display: inline !important; float: none;&quot;&gt;Quotes&lt;/span&gt;" style="text;whiteSpace=wrap;html=1;rotation=-90;" parent="1" vertex="1">
          <mxGeometry x="-460" y="1250" width="70" height="40" as="geometry" />
        </mxCell>
        <mxCell id="HYqggA-Efa8sCDrEcygq-9" value="&lt;span style=&quot;color: rgb(0, 0, 0); font-family: Helvetica; font-size: 12px; font-style: normal; font-variant-ligatures: normal; font-variant-caps: normal; font-weight: 400; letter-spacing: normal; orphans: 2; text-align: left; text-indent: 0px; text-transform: none; widows: 2; word-spacing: 0px; -webkit-text-stroke-width: 0px; white-space: nowrap; background-color: rgb(251, 251, 251); text-decoration-thickness: initial; text-decoration-style: initial; text-decoration-color: initial; display: inline !important; float: none;&quot;&gt;Calender&lt;/span&gt;" style="text;whiteSpace=wrap;html=1;rotation=-90;" parent="1" vertex="1">
          <mxGeometry x="-500" y="1380" width="80" height="40" as="geometry" />
        </mxCell>
        <mxCell id="HYqggA-Efa8sCDrEcygq-13" value="&lt;span style=&quot;text-wrap: nowrap;&quot;&gt;Lead Form&amp;nbsp;&lt;/span&gt;" style="text;whiteSpace=wrap;html=1;" parent="1" vertex="1">
          <mxGeometry y="800" width="70" height="40" as="geometry" />
        </mxCell>
        <mxCell id="HYqggA-Efa8sCDrEcygq-14" value="&lt;span style=&quot;color: rgb(0, 0, 0); font-family: Helvetica; font-size: 12px; font-style: normal; font-variant-ligatures: normal; font-variant-caps: normal; font-weight: 400; letter-spacing: normal; orphans: 2; text-align: left; text-indent: 0px; text-transform: none; widows: 2; word-spacing: 0px; -webkit-text-stroke-width: 0px; white-space: nowrap; background-color: rgb(251, 251, 251); text-decoration-thickness: initial; text-decoration-style: initial; text-decoration-color: initial; display: inline !important; float: none;&quot;&gt;View all Leads&lt;/span&gt;" style="text;whiteSpace=wrap;html=1;" parent="1" vertex="1">
          <mxGeometry x="-20" y="1134" width="110" height="40" as="geometry" />
        </mxCell>
        <mxCell id="HYqggA-Efa8sCDrEcygq-15" value="&lt;span style=&quot;text-wrap: nowrap;&quot;&gt;Opportunity Form&lt;/span&gt;" style="text;whiteSpace=wrap;html=1;" parent="1" vertex="1">
          <mxGeometry x="-10" y="1330" width="120" height="41" as="geometry" />
        </mxCell>
        <mxCell id="HYqggA-Efa8sCDrEcygq-16" value="&lt;span style=&quot;text-wrap: nowrap;&quot;&gt;View All Opportunities&lt;/span&gt;" style="text;whiteSpace=wrap;html=1;" parent="1" vertex="1">
          <mxGeometry x="10" y="1710" width="150" height="40" as="geometry" />
        </mxCell>
        <mxCell id="HYqggA-Efa8sCDrEcygq-17" value="&lt;span style=&quot;text-wrap: nowrap;&quot;&gt;Contacts Form&lt;/span&gt;" style="text;whiteSpace=wrap;html=1;" parent="1" vertex="1">
          <mxGeometry x="-50" y="334" width="110" height="40" as="geometry" />
        </mxCell>
        <mxCell id="HYqggA-Efa8sCDrEcygq-18" value="&lt;span style=&quot;text-wrap: nowrap;&quot;&gt;View all Contacts&lt;/span&gt;" style="text;whiteSpace=wrap;html=1;" parent="1" vertex="1">
          <mxGeometry x="-70" y="700" width="110" height="40" as="geometry" />
        </mxCell>
        <mxCell id="HYqggA-Efa8sCDrEcygq-19" value="&lt;span style=&quot;text-wrap: nowrap;&quot;&gt;Mining Form&lt;/span&gt;" style="text;whiteSpace=wrap;html=1;" parent="1" vertex="1">
          <mxGeometry x="-50" y="-600" width="110" height="40" as="geometry" />
        </mxCell>
        <mxCell id="HYqggA-Efa8sCDrEcygq-20" value="&lt;span style=&quot;text-wrap: nowrap;&quot;&gt;View all Mining Data&lt;/span&gt;" style="text;whiteSpace=wrap;html=1;" parent="1" vertex="1">
          <mxGeometry x="-50" y="180" width="130" height="30" as="geometry" />
        </mxCell>
        <mxCell id="HYqggA-Efa8sCDrEcygq-21" value="&lt;span style=&quot;color: rgb(0, 0, 0); font-family: Helvetica; font-size: 12px; font-style: normal; font-variant-ligatures: normal; font-variant-caps: normal; font-weight: 400; letter-spacing: normal; orphans: 2; text-align: left; text-indent: 0px; text-transform: none; widows: 2; word-spacing: 0px; -webkit-text-stroke-width: 0px; white-space: nowrap; background-color: rgb(251, 251, 251); text-decoration-thickness: initial; text-decoration-style: initial; text-decoration-color: initial; display: inline !important; float: none;&quot;&gt;View Single Lead&lt;/span&gt;" style="text;whiteSpace=wrap;html=1;" parent="1" vertex="1">
          <mxGeometry x="290" y="1060" width="110" height="40" as="geometry" />
        </mxCell>
        <mxCell id="HYqggA-Efa8sCDrEcygq-22" value="&lt;span style=&quot;text-wrap: nowrap;&quot;&gt;View Single Contact&amp;nbsp;&lt;/span&gt;" style="text;whiteSpace=wrap;html=1;" parent="1" vertex="1">
          <mxGeometry x="290" y="530" width="110" height="40" as="geometry" />
        </mxCell>
        <mxCell id="HYqggA-Efa8sCDrEcygq-23" value="&lt;span style=&quot;text-wrap: nowrap;&quot;&gt;View Single Mining&lt;/span&gt;" style="text;whiteSpace=wrap;html=1;" parent="1" vertex="1">
          <mxGeometry x="300" y="-150" width="110" height="40" as="geometry" />
        </mxCell>
        <mxCell id="HYqggA-Efa8sCDrEcygq-24" value="&lt;span style=&quot;color: rgb(0, 0, 0); font-family: Helvetica; font-size: 12px; font-style: normal; font-variant-ligatures: normal; font-variant-caps: normal; font-weight: 400; letter-spacing: normal; orphans: 2; text-align: left; text-indent: 0px; text-transform: none; widows: 2; word-spacing: 0px; -webkit-text-stroke-width: 0px; white-space: nowrap; background-color: rgb(251, 251, 251); text-decoration-thickness: initial; text-decoration-style: initial; text-decoration-color: initial; display: inline !important; float: none;&quot;&gt;View Single Opportunity&lt;/span&gt;" style="text;whiteSpace=wrap;html=1;" parent="1" vertex="1">
          <mxGeometry x="290" y="1668" width="170" height="40" as="geometry" />
        </mxCell>
        <mxCell id="HYqggA-Efa8sCDrEcygq-25" value="&lt;span style=&quot;text-wrap: nowrap;&quot;&gt;Quotes Form&amp;nbsp;&lt;/span&gt;" style="text;whiteSpace=wrap;html=1;" parent="1" vertex="1">
          <mxGeometry x="-50" y="1980" width="110" height="40" as="geometry" />
        </mxCell>
        <mxCell id="HYqggA-Efa8sCDrEcygq-26" value="&lt;span style=&quot;color: rgb(0, 0, 0); font-family: Helvetica; font-size: 12px; font-style: normal; font-variant-ligatures: normal; font-variant-caps: normal; font-weight: 400; letter-spacing: normal; orphans: 2; text-align: left; text-indent: 0px; text-transform: none; widows: 2; word-spacing: 0px; -webkit-text-stroke-width: 0px; white-space: nowrap; background-color: rgb(251, 251, 251); text-decoration-thickness: initial; text-decoration-style: initial; text-decoration-color: initial; display: inline !important; float: none;&quot;&gt;View all Quotes&lt;/span&gt;" style="text;whiteSpace=wrap;html=1;" parent="1" vertex="1">
          <mxGeometry x="-70" y="2815" width="110" height="30" as="geometry" />
        </mxCell>
        <mxCell id="HYqggA-Efa8sCDrEcygq-27" value="&lt;span style=&quot;text-wrap: nowrap;&quot;&gt;Calendar&lt;/span&gt;" style="text;whiteSpace=wrap;html=1;" parent="1" vertex="1">
          <mxGeometry x="-430" y="3000" width="110" height="30" as="geometry" />
        </mxCell>
        <mxCell id="HYqggA-Efa8sCDrEcygq-28" value="&lt;span style=&quot;text-wrap: nowrap;&quot;&gt;Create meeting&lt;/span&gt;" style="text;whiteSpace=wrap;html=1;rotation=-90;" parent="1" vertex="1">
          <mxGeometry x="-230" y="2923" width="110" height="30" as="geometry" />
        </mxCell>
        <mxCell id="HYqggA-Efa8sCDrEcygq-29" value="&lt;span style=&quot;text-wrap: nowrap;&quot;&gt;Create call&lt;/span&gt;" style="text;whiteSpace=wrap;html=1;rotation=0;" parent="1" vertex="1">
          <mxGeometry x="-150" y="3140" width="110" height="30" as="geometry" />
        </mxCell>
        <mxCell id="HYqggA-Efa8sCDrEcygq-30" value="&lt;span style=&quot;text-wrap: nowrap;&quot;&gt;Create Task&lt;/span&gt;" style="text;whiteSpace=wrap;html=1;rotation=-90;" parent="1" vertex="1">
          <mxGeometry x="-220" y="3370" width="110" height="30" as="geometry" />
        </mxCell>
        <mxCell id="HYqggA-Efa8sCDrEcygq-52" style="edgeStyle=orthogonalEdgeStyle;rounded=0;orthogonalLoop=1;jettySize=auto;html=1;entryX=0.75;entryY=0;entryDx=0;entryDy=0;" parent="1" source="HYqggA-Efa8sCDrEcygq-33" target="HYqggA-Efa8sCDrEcygq-42" edge="1">
          <mxGeometry relative="1" as="geometry" />
        </mxCell>
        <mxCell id="HYqggA-Efa8sCDrEcygq-33" value="User Profile" style="swimlane;fontStyle=0;align=center;verticalAlign=top;childLayout=stackLayout;horizontal=1;startSize=26;horizontalStack=0;resizeParent=1;resizeLast=0;collapsible=1;marginBottom=0;rounded=0;shadow=0;strokeWidth=1;" parent="1" vertex="1">
          <mxGeometry x="-700" y="1708" width="160" height="132" as="geometry">
            <mxRectangle x="340" y="380" width="170" height="26" as="alternateBounds" />
          </mxGeometry>
        </mxCell>
        <mxCell id="HYqggA-Efa8sCDrEcygq-34" value="User Name" style="text;align=left;verticalAlign=top;spacingLeft=4;spacingRight=4;overflow=hidden;rotatable=0;points=[[0,0.5],[1,0.5]];portConstraint=eastwest;" parent="HYqggA-Efa8sCDrEcygq-33" vertex="1">
          <mxGeometry y="26" width="160" height="26" as="geometry" />
        </mxCell>
        <mxCell id="HYqggA-Efa8sCDrEcygq-35" value="" style="line;html=1;strokeWidth=1;align=left;verticalAlign=middle;spacingTop=-1;spacingLeft=3;spacingRight=3;rotatable=0;labelPosition=right;points=[];portConstraint=eastwest;" parent="HYqggA-Efa8sCDrEcygq-33" vertex="1">
          <mxGeometry y="52" width="160" height="8" as="geometry" />
        </mxCell>
        <mxCell id="HYqggA-Efa8sCDrEcygq-36" value="Edit Profile" style="text;align=left;verticalAlign=top;spacingLeft=4;spacingRight=4;overflow=hidden;rotatable=0;points=[[0,0.5],[1,0.5]];portConstraint=eastwest;" parent="HYqggA-Efa8sCDrEcygq-33" vertex="1">
          <mxGeometry y="60" width="160" height="26" as="geometry" />
        </mxCell>
        <mxCell id="HYqggA-Efa8sCDrEcygq-37" value="Logout" style="text;align=left;verticalAlign=top;spacingLeft=4;spacingRight=4;overflow=hidden;rotatable=0;points=[[0,0.5],[1,0.5]];portConstraint=eastwest;" parent="HYqggA-Efa8sCDrEcygq-33" vertex="1">
          <mxGeometry y="86" width="160" height="26" as="geometry" />
        </mxCell>
        <mxCell id="HYqggA-Efa8sCDrEcygq-40" style="edgeStyle=orthogonalEdgeStyle;rounded=0;orthogonalLoop=1;jettySize=auto;html=1;entryX=0.5;entryY=0;entryDx=0;entryDy=0;" parent="1" source="HYqggA-Efa8sCDrEcygq-32" target="HYqggA-Efa8sCDrEcygq-33" edge="1">
          <mxGeometry relative="1" as="geometry" />
        </mxCell>
        <mxCell id="HYqggA-Efa8sCDrEcygq-41" value="User Profile" style="text;html=1;align=center;verticalAlign=middle;whiteSpace=wrap;rounded=0;" parent="1" vertex="1">
          <mxGeometry x="-650" y="1400" width="60" height="30" as="geometry" />
        </mxCell>
        <mxCell id="HYqggA-Efa8sCDrEcygq-57" style="edgeStyle=orthogonalEdgeStyle;rounded=0;orthogonalLoop=1;jettySize=auto;html=1;entryX=0.75;entryY=0;entryDx=0;entryDy=0;" parent="1" source="HYqggA-Efa8sCDrEcygq-42" target="QRmiU6R-hzra8IAD7mBf-316" edge="1">
          <mxGeometry relative="1" as="geometry" />
        </mxCell>
        <mxCell id="HYqggA-Efa8sCDrEcygq-42" value="Edit Profile" style="swimlane;fontStyle=0;align=center;verticalAlign=top;childLayout=stackLayout;horizontal=1;startSize=26;horizontalStack=0;resizeParent=1;resizeLast=0;collapsible=1;marginBottom=0;rounded=0;shadow=0;strokeWidth=1;" parent="1" vertex="1">
          <mxGeometry x="-960" y="1708" width="160" height="192" as="geometry">
            <mxRectangle x="340" y="380" width="170" height="26" as="alternateBounds" />
          </mxGeometry>
        </mxCell>
        <mxCell id="HYqggA-Efa8sCDrEcygq-43" value="User Name" style="text;align=left;verticalAlign=top;spacingLeft=4;spacingRight=4;overflow=hidden;rotatable=0;points=[[0,0.5],[1,0.5]];portConstraint=eastwest;" parent="HYqggA-Efa8sCDrEcygq-42" vertex="1">
          <mxGeometry y="26" width="160" height="26" as="geometry" />
        </mxCell>
        <mxCell id="HYqggA-Efa8sCDrEcygq-45" value="Emp id" style="text;align=left;verticalAlign=top;spacingLeft=4;spacingRight=4;overflow=hidden;rotatable=0;points=[[0,0.5],[1,0.5]];portConstraint=eastwest;" parent="HYqggA-Efa8sCDrEcygq-42" vertex="1">
          <mxGeometry y="52" width="160" height="26" as="geometry" />
        </mxCell>
        <mxCell id="HYqggA-Efa8sCDrEcygq-49" value="Branch" style="text;align=left;verticalAlign=top;spacingLeft=4;spacingRight=4;overflow=hidden;rotatable=0;points=[[0,0.5],[1,0.5]];portConstraint=eastwest;" parent="HYqggA-Efa8sCDrEcygq-42" vertex="1">
          <mxGeometry y="78" width="160" height="26" as="geometry" />
        </mxCell>
        <mxCell id="HYqggA-Efa8sCDrEcygq-50" value="DOB" style="text;align=left;verticalAlign=top;spacingLeft=4;spacingRight=4;overflow=hidden;rotatable=0;points=[[0,0.5],[1,0.5]];portConstraint=eastwest;" parent="HYqggA-Efa8sCDrEcygq-42" vertex="1">
          <mxGeometry y="104" width="160" height="26" as="geometry" />
        </mxCell>
        <mxCell id="HYqggA-Efa8sCDrEcygq-51" value="Address" style="text;align=left;verticalAlign=top;spacingLeft=4;spacingRight=4;overflow=hidden;rotatable=0;points=[[0,0.5],[1,0.5]];portConstraint=eastwest;" parent="HYqggA-Efa8sCDrEcygq-42" vertex="1">
          <mxGeometry y="130" width="160" height="26" as="geometry" />
        </mxCell>
        <mxCell id="HYqggA-Efa8sCDrEcygq-53" value="Profile Form" style="text;html=1;align=center;verticalAlign=middle;whiteSpace=wrap;rounded=0;" parent="1" vertex="1">
          <mxGeometry x="-820" y="1650" width="60" height="30" as="geometry" />
        </mxCell>
        <mxCell id="HYqggA-Efa8sCDrEcygq-58" value="Change Edited Form" style="text;html=1;align=center;verticalAlign=middle;whiteSpace=wrap;rounded=0;" parent="1" vertex="1">
          <mxGeometry x="-870" y="1410" width="60" height="70" as="geometry" />
        </mxCell>
        <mxCell id="HYqggA-Efa8sCDrEcygq-59" value="&amp;nbsp;datamining &amp;gt;= 40&amp;nbsp;&lt;div&gt;and&lt;/div&gt;&lt;div&gt;&amp;nbsp;lead &amp;gt;= 4&lt;/div&gt;" style="rhombus;whiteSpace=wrap;html=1;" parent="1" vertex="1">
          <mxGeometry x="-807.5" y="2160" width="140" height="145" as="geometry" />
        </mxCell>
        <mxCell id="HYqggA-Efa8sCDrEcygq-60" value="Logged out" style="text;html=1;align=center;verticalAlign=middle;whiteSpace=wrap;rounded=0;" parent="1" vertex="1">
          <mxGeometry x="-797.5" y="2355" width="60" height="30" as="geometry" />
        </mxCell>
        <mxCell id="HYqggA-Efa8sCDrEcygq-61" value="Login time completed&amp;nbsp;&lt;div&gt;(timer &amp;gt; 8 hrs)&lt;/div&gt;" style="rhombus;whiteSpace=wrap;html=1;" parent="1" vertex="1">
          <mxGeometry x="-812.5" y="2415" width="150" height="120" as="geometry" />
        </mxCell>
        <mxCell id="HYqggA-Efa8sCDrEcygq-62" value="" style="endArrow=classic;html=1;rounded=0;exitX=0.5;exitY=1;exitDx=0;exitDy=0;entryX=0.5;entryY=0;entryDx=0;entryDy=0;" parent="1" source="HYqggA-Efa8sCDrEcygq-59" target="HYqggA-Efa8sCDrEcygq-61" edge="1">
          <mxGeometry width="50" height="50" relative="1" as="geometry">
            <mxPoint x="-697.5" y="2395" as="sourcePoint" />
            <mxPoint x="-647.5" y="2345" as="targetPoint" />
          </mxGeometry>
        </mxCell>
        <mxCell id="HYqggA-Efa8sCDrEcygq-63" value="yes" style="text;html=1;align=center;verticalAlign=middle;whiteSpace=wrap;rounded=0;" parent="1" vertex="1">
          <mxGeometry x="-787.5" y="2295" width="60" height="30" as="geometry" />
        </mxCell>
        <mxCell id="HYqggA-Efa8sCDrEcygq-64" value="yes" style="text;html=1;align=center;verticalAlign=middle;whiteSpace=wrap;rounded=0;" parent="1" vertex="1">
          <mxGeometry x="-787.5" y="2535" width="60" height="30" as="geometry" />
        </mxCell>
        <mxCell id="HYqggA-Efa8sCDrEcygq-65" value="Send mail to admin&amp;nbsp;&lt;div&gt;informing that user logged out earlier&lt;/div&gt;" style="rounded=0;whiteSpace=wrap;html=1;" parent="1" vertex="1">
          <mxGeometry x="-677.5" y="2545" width="120" height="60" as="geometry" />
        </mxCell>
        <mxCell id="HYqggA-Efa8sCDrEcygq-66" value="" style="endArrow=classic;html=1;rounded=0;entryX=0.5;entryY=0;entryDx=0;entryDy=0;exitX=1;exitY=0.5;exitDx=0;exitDy=0;" parent="1" source="HYqggA-Efa8sCDrEcygq-61" target="HYqggA-Efa8sCDrEcygq-65" edge="1">
          <mxGeometry width="50" height="50" relative="1" as="geometry">
            <mxPoint x="-697.5" y="2485" as="sourcePoint" />
            <mxPoint x="-647.5" y="2435" as="targetPoint" />
            <Array as="points">
              <mxPoint x="-617.5" y="2475" />
            </Array>
          </mxGeometry>
        </mxCell>
        <mxCell id="HYqggA-Efa8sCDrEcygq-67" value="No" style="text;html=1;align=center;verticalAlign=middle;whiteSpace=wrap;rounded=0;" parent="1" vertex="1">
          <mxGeometry x="-677.5" y="2445" width="60" height="30" as="geometry" />
        </mxCell>
        <mxCell id="HYqggA-Efa8sCDrEcygq-68" value="" style="endArrow=classic;html=1;rounded=0;exitX=0.5;exitY=1;exitDx=0;exitDy=0;entryX=0.5;entryY=0;entryDx=0;entryDy=0;entryPerimeter=0;" parent="1" source="HYqggA-Efa8sCDrEcygq-65" target="HYqggA-Efa8sCDrEcygq-77" edge="1">
          <mxGeometry width="50" height="50" relative="1" as="geometry">
            <mxPoint x="-697.5" y="2575" as="sourcePoint" />
            <mxPoint x="-617.5" y="2675" as="targetPoint" />
            <Array as="points">
              <mxPoint x="-617.5" y="2625" />
            </Array>
          </mxGeometry>
        </mxCell>
        <mxCell id="HYqggA-Efa8sCDrEcygq-69" value="" style="endArrow=classic;html=1;rounded=0;exitX=0.5;exitY=1;exitDx=0;exitDy=0;entryX=0.5;entryY=0;entryDx=0;entryDy=0;" parent="1" source="HYqggA-Efa8sCDrEcygq-61" target="HYqggA-Efa8sCDrEcygq-70" edge="1">
          <mxGeometry width="50" height="50" relative="1" as="geometry">
            <mxPoint x="-757.5" y="2595" as="sourcePoint" />
            <mxPoint x="-737.5" y="2655" as="targetPoint" />
          </mxGeometry>
        </mxCell>
        <mxCell id="HYqggA-Efa8sCDrEcygq-70" value="A" style="ellipse;whiteSpace=wrap;html=1;aspect=fixed;" parent="1" vertex="1">
          <mxGeometry x="-757.5" y="2655" width="40" height="40" as="geometry" />
        </mxCell>
        <mxCell id="HYqggA-Efa8sCDrEcygq-71" value="Return to login" style="text;html=1;align=center;verticalAlign=middle;whiteSpace=wrap;rounded=0;" parent="1" vertex="1">
          <mxGeometry x="-767.5" y="2695" width="60" height="30" as="geometry" />
        </mxCell>
        <mxCell id="HYqggA-Efa8sCDrEcygq-72" value="" style="endArrow=classic;html=1;rounded=0;exitX=0;exitY=0.5;exitDx=0;exitDy=0;entryX=1;entryY=0.5;entryDx=0;entryDy=0;" parent="1" source="HYqggA-Efa8sCDrEcygq-59" target="HYqggA-Efa8sCDrEcygq-74" edge="1">
          <mxGeometry width="50" height="50" relative="1" as="geometry">
            <mxPoint x="-757.5" y="2195" as="sourcePoint" />
            <mxPoint x="-897.5" y="2230" as="targetPoint" />
          </mxGeometry>
        </mxCell>
        <mxCell id="HYqggA-Efa8sCDrEcygq-73" value="No" style="text;html=1;align=center;verticalAlign=middle;whiteSpace=wrap;rounded=0;" parent="1" vertex="1">
          <mxGeometry x="-857.5" y="2205" width="60" height="30" as="geometry" />
        </mxCell>
        <mxCell id="HYqggA-Efa8sCDrEcygq-74" value="B" style="ellipse;whiteSpace=wrap;html=1;aspect=fixed;" parent="1" vertex="1">
          <mxGeometry x="-952.5" y="2207.5" width="45" height="45" as="geometry" />
        </mxCell>
        <mxCell id="HYqggA-Efa8sCDrEcygq-75" value="return to dashboard" style="text;html=1;align=center;verticalAlign=middle;whiteSpace=wrap;rounded=0;" parent="1" vertex="1">
          <mxGeometry x="-960" y="2255" width="60" height="30" as="geometry" />
        </mxCell>
        <mxCell id="HYqggA-Efa8sCDrEcygq-77" value="Admin access to user to login" style="rounded=0;whiteSpace=wrap;html=1;" parent="1" vertex="1">
          <mxGeometry x="-677.5" y="2665" width="120" height="60" as="geometry" />
        </mxCell>
        <mxCell id="HYqggA-Efa8sCDrEcygq-78" value="" style="endArrow=classic;html=1;rounded=0;exitX=0.5;exitY=1;exitDx=0;exitDy=0;entryX=0.5;entryY=0;entryDx=0;entryDy=0;" parent="1" source="HYqggA-Efa8sCDrEcygq-77" target="HYqggA-Efa8sCDrEcygq-79" edge="1">
          <mxGeometry width="50" height="50" relative="1" as="geometry">
            <mxPoint x="-837.5" y="2695" as="sourcePoint" />
            <mxPoint x="-617.5" y="2815" as="targetPoint" />
          </mxGeometry>
        </mxCell>
        <mxCell id="HYqggA-Efa8sCDrEcygq-79" value="A" style="ellipse;whiteSpace=wrap;html=1;aspect=fixed;" parent="1" vertex="1">
          <mxGeometry x="-642.5" y="2795" width="50" height="50" as="geometry" />
        </mxCell>
        <mxCell id="HYqggA-Efa8sCDrEcygq-80" style="edgeStyle=orthogonalEdgeStyle;rounded=0;orthogonalLoop=1;jettySize=auto;html=1;entryX=0.5;entryY=0;entryDx=0;entryDy=0;" parent="1" source="HYqggA-Efa8sCDrEcygq-37" target="HYqggA-Efa8sCDrEcygq-59" edge="1">
          <mxGeometry relative="1" as="geometry">
            <mxPoint x="-740" y="2150" as="targetPoint" />
          </mxGeometry>
        </mxCell>
        <mxCell id="HYqggA-Efa8sCDrEcygq-82" style="edgeStyle=orthogonalEdgeStyle;rounded=0;orthogonalLoop=1;jettySize=auto;html=1;entryX=0.5;entryY=0;entryDx=0;entryDy=0;" parent="1" source="HYqggA-Efa8sCDrEcygq-81" target="QRmiU6R-hzra8IAD7mBf-1" edge="1">
          <mxGeometry relative="1" as="geometry" />
        </mxCell>
        <mxCell id="HYqggA-Efa8sCDrEcygq-81" value="B" style="ellipse;whiteSpace=wrap;html=1;aspect=fixed;" parent="1" vertex="1">
          <mxGeometry x="-585" y="695" width="50" height="50" as="geometry" />
        </mxCell>
        <mxCell id="HYqggA-Efa8sCDrEcygq-83" value="Data Base" style="swimlane;fontStyle=0;align=center;verticalAlign=top;childLayout=stackLayout;horizontal=1;startSize=26;horizontalStack=0;resizeParent=1;resizeLast=0;collapsible=1;marginBottom=0;rounded=0;shadow=0;strokeWidth=1;" parent="1" vertex="1">
          <mxGeometry x="-1200" y="-500" width="120" height="208" as="geometry">
            <mxRectangle x="550" y="140" width="160" height="26" as="alternateBounds" />
          </mxGeometry>
        </mxCell>
        <mxCell id="HYqggA-Efa8sCDrEcygq-84" value="User info and profile" style="text;align=left;verticalAlign=top;spacingLeft=4;spacingRight=4;overflow=hidden;rotatable=0;points=[[0,0.5],[1,0.5]];portConstraint=eastwest;" parent="HYqggA-Efa8sCDrEcygq-83" vertex="1">
          <mxGeometry y="26" width="120" height="26" as="geometry" />
        </mxCell>
        <mxCell id="HYqggA-Efa8sCDrEcygq-85" value="Mined data" style="text;align=left;verticalAlign=top;spacingLeft=4;spacingRight=4;overflow=hidden;rotatable=0;points=[[0,0.5],[1,0.5]];portConstraint=eastwest;rounded=0;shadow=0;html=0;" parent="HYqggA-Efa8sCDrEcygq-83" vertex="1">
          <mxGeometry y="52" width="120" height="26" as="geometry" />
        </mxCell>
        <mxCell id="HYqggA-Efa8sCDrEcygq-87" value="LeadsÂ " style="text;align=left;verticalAlign=top;spacingLeft=4;spacingRight=4;overflow=hidden;rotatable=0;points=[[0,0.5],[1,0.5]];portConstraint=eastwest;rounded=0;shadow=0;html=0;" parent="HYqggA-Efa8sCDrEcygq-83" vertex="1">
          <mxGeometry y="78" width="120" height="26" as="geometry" />
        </mxCell>
        <mxCell id="HYqggA-Efa8sCDrEcygq-101" value="Opportunities" style="text;align=left;verticalAlign=top;spacingLeft=4;spacingRight=4;overflow=hidden;rotatable=0;points=[[0,0.5],[1,0.5]];portConstraint=eastwest;rounded=0;shadow=0;html=0;" parent="HYqggA-Efa8sCDrEcygq-83" vertex="1">
          <mxGeometry y="104" width="120" height="26" as="geometry" />
        </mxCell>
        <mxCell id="HYqggA-Efa8sCDrEcygq-86" value="Quotes" style="text;align=left;verticalAlign=top;spacingLeft=4;spacingRight=4;overflow=hidden;rotatable=0;points=[[0,0.5],[1,0.5]];portConstraint=eastwest;rounded=0;shadow=0;html=0;" parent="HYqggA-Efa8sCDrEcygq-83" vertex="1">
          <mxGeometry y="130" width="120" height="26" as="geometry" />
        </mxCell>
        <mxCell id="HYqggA-Efa8sCDrEcygq-89" value="Calendars" style="text;align=left;verticalAlign=top;spacingLeft=4;spacingRight=4;overflow=hidden;rotatable=0;points=[[0,0.5],[1,0.5]];portConstraint=eastwest;rounded=0;shadow=0;html=0;" parent="HYqggA-Efa8sCDrEcygq-83" vertex="1">
          <mxGeometry y="156" width="120" height="26" as="geometry" />
        </mxCell>
        <mxCell id="HYqggA-Efa8sCDrEcygq-88" value="calls and meeting recordings" style="text;align=left;verticalAlign=top;spacingLeft=4;spacingRight=4;overflow=hidden;rotatable=0;points=[[0,0.5],[1,0.5]];portConstraint=eastwest;rounded=0;shadow=0;html=0;" parent="HYqggA-Efa8sCDrEcygq-83" vertex="1">
          <mxGeometry y="182" width="120" height="26" as="geometry" />
        </mxCell>
        <mxCell id="DjGWNIh5ySNA06VgHrhB-33" value="&lt;span style=&quot;color: rgba(0, 0, 0, 0); font-family: monospace; font-size: 0px; text-align: start;&quot;&gt;%3CmxGraphModel%3E%3Croot%3E%3CmxCell%20id%3D%220%22%2F%3E%3CmxCell%20id%3D%221%22%20parent%3D%220%22%2F%3E%3CmxCell%20id%3D%222%22%20style%3D%22edgeStyle%3DorthogonalEdgeStyle%3Brounded%3D0%3BorthogonalLoop%3D1%3BjettySize%3Dauto%3Bhtml%3D1%3BexitX%3D0.5%3BexitY%3D1%3BexitDx%3D0%3BexitDy%3D0%3BentryX%3D0.5%3BentryY%3D0%3BentryDx%3D0%3BentryDy%3D0%3B%22%20edge%3D%221%22%20source%3D%223%22%20target%3D%226%22%20parent%3D%221%22%3E%3CmxGeometry%20relative%3D%221%22%20as%3D%22geometry%22%2F%3E%3C%2FmxCell%3E%3CmxCell%20id%3D%223%22%20value%3D%22Start%22%20style%3D%22rounded%3D1%3BwhiteSpace%3Dwrap%3Bhtml%3D1%3BfontSize%3D12%3Bglass%3D0%3BstrokeWidth%3D1%3Bshadow%3D0%3B%22%20vertex%3D%221%22%20parent%3D%221%22%3E%3CmxGeometry%20x%3D%22260%22%20y%3D%2270%22%20width%3D%22120%22%20height%3D%2240%22%20as%3D%22geometry%22%2F%3E%3C%2FmxCell%3E%3CmxCell%20id%3D%224%22%20style%3D%22edgeStyle%3DorthogonalEdgeStyle%3Brounded%3D0%3BorthogonalLoop%3D1%3BjettySize%3Dauto%3Bhtml%3D1%3BexitX%3D1%3BexitY%3D0.5%3BexitDx%3D0%3BexitDy%3D0%3B%22%20edge%3D%221%22%20target%3D%228%22%20parent%3D%221%22%3E%3CmxGeometry%20relative%3D%221%22%20as%3D%22geometry%22%3E%3CmxPoint%20x%3D%22520%22%20y%3D%22210%22%20as%3D%22sourcePoint%22%2F%3E%3C%2FmxGeometry%3E%3C%2FmxCell%3E%3CmxCell%20id%3D%225%22%20style%3D%22edgeStyle%3DorthogonalEdgeStyle%3Brounded%3D0%3BorthogonalLoop%3D1%3BjettySize%3Dauto%3Bhtml%3D1%3BentryX%3D0.5%3BentryY%3D0%3BentryDx%3D0%3BentryDy%3D0%3B%22%20edge%3D%221%22%20source%3D%226%22%20target%3D%2210%22%20parent%3D%221%22%3E%3CmxGeometry%20relative%3D%221%22%20as%3D%22geometry%22%2F%3E%3C%2FmxCell%3E%3CmxCell%20id%3D%226%22%20value%3D%22Initialize%20pyttsx3%22%20style%3D%22rhombus%3BwhiteSpace%3Dwrap%3Bhtml%3D1%3Bshadow%3D0%3BfontFamily%3DHelvetica%3BfontSize%3D12%3Balign%3Dcenter%3BstrokeWidth%3D1%3Bspacing%3D6%3BspacingTop%3D-4%3B%22%20vertex%3D%221%22%20parent%3D%221%22%3E%3CmxGeometry%20x%3D%22270%22%20y%3D%22170%22%20width%3D%22100%22%20height%3D%2280%22%20as%3D%22geometry%22%2F%3E%3C%2FmxCell%3E%3CmxCell%20id%3D%227%22%20value%3D%22No%22%20style%3D%22rounded%3D0%3Bhtml%3D1%3BjettySize%3Dauto%3BorthogonalLoop%3D1%3BfontSize%3D11%3BendArrow%3Dblock%3BendFill%3D0%3BendSize%3D8%3BstrokeWidth%3D1%3Bshadow%3D0%3BlabelBackgroundColor%3Dnone%3BedgeStyle%3DorthogonalEdgeStyle%3BentryX%3D0.4%3BentryY%3D-0.002%3BentryDx%3D0%3BentryDy%3D0%3BentryPerimeter%3D0%3B%22%20edge%3D%221%22%20target%3D%2212%22%20parent%3D%221%22%3E%3CmxGeometry%20x%3D%22-0.7652%22%20y%3D%2230%22%20relative%3D%221%22%20as%3D%22geometry%22%3E%3CmxPoint%20as%3D%22offset%22%2F%3E%3CmxPoint%20x%3D%22319.5%22%20y%3D%22350%22%20as%3D%22sourcePoint%22%2F%3E%3CmxPoint%20x%3D%22319.5%22%20y%3D%22410%22%20as%3D%22targetPoint%22%2F%3E%3C%2FmxGeometry%3E%3C%2FmxCell%3E%3CmxCell%20id%3D%228%22%20value%3D%22Set%20DB_FAISS_PATH%22%20style%3D%22rhombus%3BwhiteSpace%3Dwrap%3Bhtml%3D1%3Bshadow%3D0%3BfontFamily%3DHelvetica%3BfontSize%3D12%3Balign%3Dcenter%3BstrokeWidth%3D1%3Bspacing%3D6%3BspacingTop%3D-4%3B%22%20vertex%3D%221%22%20parent%3D%221%22%3E%3CmxGeometry%20x%3D%22600%22%20y%3D%22164%22%20width%3D%22110%22%20height%3D%2292%22%20as%3D%22geometry%22%2F%3E%3C%2FmxCell%3E%3CmxCell%20id%3D%229%22%20value%3D%22Create%20Document%20%22%20style%3D%22rhombus%3BwhiteSpace%3Dwrap%3Bhtml%3D1%3Bshadow%3D0%3BfontFamily%3DHelvetica%3BfontSize%3D12%3Balign%3Dcenter%3BstrokeWidth%3D1%3Bspacing%3D6%3BspacingTop%3D-4%3B%22%20vertex%3D%221%22%20parent%3D%221%22%3E%3CmxGeometry%20x%3D%22610%22%20y%3D%22305%22%20width%3D%22100%22%20height%3D%2280%22%20as%3D%22geometry%22%2F%3E%3C%2FmxCell%3E%3CmxCell%20id%3D%2210%22%20value%3D%22Read%20Text%20from%20File%26amp%3Bnbsp%3B%22%20style%3D%22shape%3Dparallelogram%3Bperimeter%3DparallelogramPerimeter%3BwhiteSpace%3Dwrap%3Bhtml%3D1%3BfixedSize%3D1%3B%22%20vertex%3D%221%22%20parent%3D%221%22%3E%3CmxGeometry%20x%3D%22250%22%20y%3D%22310%22%20width%3D%22130%22%20height%3D%2270%22%20as%3D%22geometry%22%2F%3E%3C%2FmxCell%3E%3CmxCell%20id%3D%2211%22%20value%3D%22%22%20style%3D%22edgeStyle%3DorthogonalEdgeStyle%3Brounded%3D0%3BorthogonalLoop%3D1%3BjettySize%3Dauto%3Bhtml%3D1%3B%22%20edge%3D%221%22%20source%3D%2212%22%20target%3D%2215%22%20parent%3D%221%22%3E%3CmxGeometry%20relative%3D%221%22%20as%3D%22geometry%22%2F%3E%3C%2FmxCell%3E%3CmxCell%20id%3D%2212%22%20value%3D%22Initialize%20LLM%20%20%22%20style%3D%22rounded%3D0%3BwhiteSpace%3Dwrap%3Bhtml%3D1%3B%22%20vertex%3D%221%22%20parent%3D%221%22%3E%3CmxGeometry%20x%3D%22270%22%20y%3D%22520%22%20width%3D%22120%22%20height%3D%2260%22%20as%3D%22geometry%22%2F%3E%3C%2FmxCell%3E%3CmxCell%20id%3D%2213%22%20value%3D%22Load%20and%20Return%20DB%22%20style%3D%22rounded%3D0%3BwhiteSpace%3Dwrap%3Bhtml%3D1%3B%22%20vertex%3D%221%22%20parent%3D%221%22%3E%3CmxGeometry%20x%3D%22440%22%20y%3D%22180%22%20width%3D%22100%22%20height%3D%2260%22%20as%3D%22geometry%22%2F%3E%3C%2FmxCell%3E%3CmxCell%20id%3D%2214%22%20style%3D%22edgeStyle%3DorthogonalEdgeStyle%3Brounded%3D0%3BorthogonalLoop%3D1%3BjettySize%3Dauto%3Bhtml%3D1%3BentryX%3D0.5%3BentryY%3D0%3BentryDx%3D0%3BentryDy%3D0%3B%22%20edge%3D%221%22%20source%3D%2215%22%20target%3D%2218%22%20parent%3D%221%22%3E%3CmxGeometry%20relative%3D%221%22%20as%3D%22geometry%22%2F%3E%3C%2FmxCell%3E%3CmxCell%20id%3D%2215%22%20value%3D%22Get%20Voice%20Input%22%20style%3D%22shape%3Dparallelogram%3Bperimeter%3DparallelogramPerimeter%3BwhiteSpace%3Dwrap%3Bhtml%3D1%3BfixedSize%3D1%3B%22%20vertex%3D%221%22%20parent%3D%221%22%3E%3CmxGeometry%20x%3D%22260%22%20y%3D%22620%22%20width%3D%22120%22%20height%3D%2260%22%20as%3D%22geometry%22%2F%3E%3C%2FmxCell%3E%3CmxCell%20id%3D%2216%22%20style%3D%22edgeStyle%3DorthogonalEdgeStyle%3Brounded%3D0%3BorthogonalLoop%3D1%3BjettySize%3Dauto%3Bhtml%3D1%3BentryX%3D1%3BentryY%3D0.5%3BentryDx%3D0%3BentryDy%3D0%3B%22%20edge%3D%221%22%20source%3D%2218%22%20target%3D%2221%22%20parent%3D%221%22%3E%3CmxGeometry%20relative%3D%221%22%20as%3D%22geometry%22%2F%3E%3C%2FmxCell%3E%3CmxCell%20id%3D%2217%22%20style%3D%22edgeStyle%3DorthogonalEdgeStyle%3Brounded%3D0%3BorthogonalLoop%3D1%3BjettySize%3Dauto%3Bhtml%3D1%3BentryX%3D0.5%3BentryY%3D0%3BentryDx%3D0%3BentryDy%3D0%3B%22%20edge%3D%221%22%20source%3D%2218%22%20target%3D%2223%22%20parent%3D%221%22%3E%3CmxGeometry%20relative%3D%221%22%20as%3D%22geometry%22%2F%3E%3C%2FmxCell%3E%3CmxCell%20id%3D%2218%22%20value%3D%22Voice%20Recognized%3F%20%22%20style%3D%22rhombus%3BwhiteSpace%3Dwrap%3Bhtml%3D1%3Bshadow%3D0%3BfontFamily%3DHelvetica%3BfontSize%3D12%3Balign%3Dcenter%3BstrokeWidth%3D1%3Bspacing%3D6%3BspacingTop%3D-4%3B%22%20vertex%3D%221%22%20parent%3D%221%22%3E%3CmxGeometry%20x%3D%22270%22%20y%3D%22716%22%20width%3D%22100%22%20height%3D%2280%22%20as%3D%22geometry%22%2F%3E%3C%2FmxCell%3E%3CmxCell%20id%3D%2219%22%20value%3D%22(No)%20%22%20style%3D%22text%3Bhtml%3D1%3Balign%3Dcenter%3BverticalAlign%3Dmiddle%3Bresizable%3D0%3Bpoints%3D%5B%5D%3Bautosize%3D1%3BstrokeColor%3Dnone%3BfillColor%3Dnone%3B%22%20vertex%3D%221%22%20parent%3D%221%22%3E%3CmxGeometry%20x%3D%22180%22%20y%3D%22728%22%20width%3D%2250%22%20height%3D%2230%22%20as%3D%22geometry%22%2F%3E%3C%2FmxCell%3E%3CmxCell%20id%3D%2220%22%20value%3D%22yes%22%20style%3D%22text%3Bhtml%3D1%3Balign%3Dcenter%3BverticalAlign%3Dmiddle%3Bresizable%3D0%3Bpoints%3D%5B%5D%3Bautosize%3D1%3BstrokeColor%3Dnone%3BfillColor%3Dnone%3B%22%20vertex%3D%221%22%20parent%3D%221%22%3E%3CmxGeometry%20x%3D%22330%22%20y%3D%22800%22%20width%3D%2240%22%20height%3D%2230%22%20as%3D%22geometry%22%2F%3E%3C%2FmxCell%3E%3CmxCell%20id%3D%2221%22%20value%3D%22Default%20Response%20%20%20%20%22%20style%3D%22rounded%3D0%3BwhiteSpace%3Dwrap%3Bhtml%3D1%3B%22%20vertex%3D%221%22%20parent%3D%221%22%3E%3CmxGeometry%20x%3D%2240%22%20y%3D%22720%22%20width%3D%22120%22%20height%3D%2272%22%20as%3D%22geometry%22%2F%3E%3C%2FmxCell%3E%3CmxCell%20id%3D%2222%22%20style%3D%22edgeStyle%3DorthogonalEdgeStyle%3Brounded%3D0%3BorthogonalLoop%3D1%3BjettySize%3Dauto%3Bhtml%3D1%3BexitX%3D0.5%3BexitY%3D1%3BexitDx%3D0%3BexitDy%3D0%3BentryX%3D0.5%3BentryY%3D0%3BentryDx%3D0%3BentryDy%3D0%3B%22%20edge%3D%221%22%20source%3D%2223%22%20target%3D%2225%22%20parent%3D%221%22%3E%3CmxGeometry%20relative%3D%221%22%20as%3D%22geometry%22%2F%3E%3C%2FmxCell%3E%3CmxCell%20id%3D%2223%22%20value%3D%22Search%20Context%2FGenerate%20Response%26amp%3Bnbsp%3B%22%20style%3D%22whiteSpace%3Dwrap%3Bhtml%3D1%3B%22%20vertex%3D%221%22%20parent%3D%221%22%3E%3CmxGeometry%20x%3D%22260%22%20y%3D%22840%22%20width%3D%22120%22%20height%3D%2260%22%20as%3D%22geometry%22%2F%3E%3C%2FmxCell%3E%3CmxCell%20id%3D%2224%22%20style%3D%22edgeStyle%3DorthogonalEdgeStyle%3Brounded%3D0%3BorthogonalLoop%3D1%3BjettySize%3Dauto%3Bhtml%3D1%3BentryX%3D0.5%3BentryY%3D0%3BentryDx%3D0%3BentryDy%3D0%3B%22%20edge%3D%221%22%20source%3D%2225%22%20target%3D%2226%22%20parent%3D%221%22%3E%3CmxGeometry%20relative%3D%221%22%20as%3D%22geometry%22%2F%3E%3C%2FmxCell%3E%3CmxCell%20id%3D%2225%22%20value%3D%22Speak%20Response%22%20style%3D%22whiteSpace%3Dwrap%3Bhtml%3D1%3B%22%20vertex%3D%221%22%20parent%3D%221%22%3E%3CmxGeometry%20x%3D%22260%22%20y%3D%22950%22%20width%3D%22120%22%20height%3D%2250%22%20as%3D%22geometry%22%2F%3E%3C%2FmxCell%3E%3CmxCell%20id%3D%2226%22%20value%3D%22End%22%20style%3D%22rounded%3D1%3BwhiteSpace%3Dwrap%3Bhtml%3D1%3B%22%20vertex%3D%221%22%20parent%3D%221%22%3E%3CmxGeometry%20x%3D%22260%22%20y%3D%221070%22%20width%3D%22120%22%20height%3D%2260%22%20as%3D%22geometry%22%2F%3E%3C%2FmxCell%3E%3CmxCell%20id%3D%2227%22%20style%3D%22edgeStyle%3DorthogonalEdgeStyle%3Brounded%3D0%3BorthogonalLoop%3D1%3BjettySize%3Dauto%3Bhtml%3D1%3BentryX%3D0.462%3BentryY%3D0.095%3BentryDx%3D0%3BentryDy%3D0%3BentryPerimeter%3D0%3B%22%20edge%3D%221%22%20source%3D%228%22%20target%3D%229%22%20parent%3D%221%22%3E%3CmxGeometry%20relative%3D%221%22%20as%3D%22geometry%22%2F%3E%3C%2FmxCell%3E%3CmxCell%20id%3D%2228%22%20style%3D%22edgeStyle%3DorthogonalEdgeStyle%3Brounded%3D0%3BorthogonalLoop%3D1%3BjettySize%3Dauto%3Bhtml%3D1%3BentryX%3D0.578%3BentryY%3D-0.013%3BentryDx%3D0%3BentryDy%3D0%3BentryPerimeter%3D0%3B%22%20edge%3D%221%22%20source%3D%2212%22%20target%3D%2215%22%20parent%3D%221%22%3E%3CmxGeometry%20relative%3D%221%22%20as%3D%22geometry%22%2F%3E%3C%2FmxCell%3E%3CmxCell%20id%3D%2229%22%20value%3D%22%22%20style%3D%22endArrow%3Dclassic%3Bhtml%3D1%3Brounded%3D0%3B%22%20edge%3D%221%22%20parent%3D%221%22%3E%3CmxGeometry%20width%3D%2250%22%20height%3D%2250%22%20relative%3D%221%22%20as%3D%22geometry%22%3E%3CmxPoint%20x%3D%22660%22%20y%3D%22560%22%20as%3D%22sourcePoint%22%2F%3E%3CmxPoint%20x%3D%22400%22%20y%3D%22560%22%20as%3D%22targetPoint%22%2F%3E%3C%2FmxGeometry%3E%3C%2FmxCell%3E%3CmxCell%20id%3D%2230%22%20value%3D%22%22%20style%3D%22endArrow%3Dnone%3Bhtml%3D1%3Brounded%3D0%3B%22%20edge%3D%221%22%20parent%3D%221%22%3E%3CmxGeometry%20width%3D%2250%22%20height%3D%2250%22%20relative%3D%221%22%20as%3D%22geometry%22%3E%3CmxPoint%20x%3D%22659%22%20y%3D%22560%22%20as%3D%22sourcePoint%22%2F%3E%3CmxPoint%20x%3D%22659.44%22%20y%3D%22390%22%20as%3D%22targetPoint%22%2F%3E%3C%2FmxGeometry%3E%3C%2FmxCell%3E%3CmxCell%20id%3D%2231%22%20value%3D%22%22%20style%3D%22endArrow%3Dnone%3Bhtml%3D1%3Brounded%3D0%3BentryX%3D0.5%3BentryY%3D1%3BentryDx%3D0%3BentryDy%3D0%3B%22%20edge%3D%221%22%20target%3D%2221%22%20parent%3D%221%22%3E%3CmxGeometry%20width%3D%2250%22%20height%3D%2250%22%20relative%3D%221%22%20as%3D%22geometry%22%3E%3CmxPoint%20x%3D%22100%22%20y%3D%22980%22%20as%3D%22sourcePoint%22%2F%3E%3CmxPoint%20x%3D%22400%22%20y%3D%22880%22%20as%3D%22targetPoint%22%2F%3E%3C%2FmxGeometry%3E%3C%2FmxCell%3E%3CmxCell%20id%3D%2232%22%20value%3D%22%22%20style%3D%22endArrow%3Dclassic%3Bhtml%3D1%3Brounded%3D0%3BentryX%3D0%3BentryY%3D0.5%3BentryDx%3D0%3BentryDy%3D0%3B%22%20edge%3D%221%22%20target%3D%2225%22%20parent%3D%221%22%3E%3CmxGeometry%20width%3D%2250%22%20height%3D%2250%22%20relative%3D%221%22%20as%3D%22geometry%22%3E%3CmxPoint%20x%3D%22100%22%20y%3D%22980%22%20as%3D%22sourcePoint%22%2F%3E%3CmxPoint%20x%3D%22400%22%20y%3D%22880%22%20as%3D%22targetPoint%22%2F%3E%3C%2FmxGeometry%3E%3C%2FmxCell%3E%3CmxCell%20id%3D%2233%22%20value%3D%22%22%20style%3D%22edgeStyle%3DorthogonalEdgeStyle%3Brounded%3D0%3BorthogonalLoop%3D1%3BjettySize%3Dauto%3Bhtml%3D1%3BexitX%3D1%3BexitY%3D0.5%3BexitDx%3D0%3BexitDy%3D0%3B%22%20edge%3D%221%22%20source%3D%226%22%20parent%3D%221%22%3E%3CmxGeometry%20relative%3D%221%22%20as%3D%22geometry%22%3E%3CmxPoint%20x%3D%22370%22%20y%3D%22210%22%20as%3D%22sourcePoint%22%2F%3E%3CmxPoint%20x%3D%22440%22%20y%3D%22210%22%20as%3D%22targetPoint%22%2F%3E%3C%2FmxGeometry%3E%3C%2FmxCell%3E%3C%2Froot%3E%3C%2FmxGraphModel%3E&lt;/span&gt;" style="text;html=1;align=center;verticalAlign=middle;resizable=0;points=[];autosize=1;strokeColor=none;fillColor=none;" vertex="1" parent="1">
          <mxGeometry x="-570" y="-1152" width="20" height="30" as="geometry" />
        </mxCell>
        <mxCell id="DjGWNIh5ySNA06VgHrhB-66" style="edgeStyle=orthogonalEdgeStyle;rounded=0;orthogonalLoop=1;jettySize=auto;html=1;exitX=0.5;exitY=1;exitDx=0;exitDy=0;entryX=0.5;entryY=0;entryDx=0;entryDy=0;" edge="1" parent="1" source="DjGWNIh5ySNA06VgHrhB-67" target="DjGWNIh5ySNA06VgHrhB-70">
          <mxGeometry relative="1" as="geometry" />
        </mxCell>
        <mxCell id="DjGWNIh5ySNA06VgHrhB-67" value="Start" style="rounded=1;whiteSpace=wrap;html=1;fontSize=12;glass=0;strokeWidth=1;shadow=0;" vertex="1" parent="1">
          <mxGeometry x="-1385" y="-630" width="120" height="40" as="geometry" />
        </mxCell>
        <mxCell id="DjGWNIh5ySNA06VgHrhB-68" style="edgeStyle=orthogonalEdgeStyle;rounded=0;orthogonalLoop=1;jettySize=auto;html=1;" edge="1" parent="1" target="DjGWNIh5ySNA06VgHrhB-72">
          <mxGeometry relative="1" as="geometry">
            <mxPoint x="-1080" y="-370" as="sourcePoint" />
          </mxGeometry>
        </mxCell>
        <mxCell id="DjGWNIh5ySNA06VgHrhB-69" style="edgeStyle=orthogonalEdgeStyle;rounded=0;orthogonalLoop=1;jettySize=auto;html=1;entryX=0.5;entryY=0;entryDx=0;entryDy=0;" edge="1" parent="1" source="DjGWNIh5ySNA06VgHrhB-70" target="DjGWNIh5ySNA06VgHrhB-74">
          <mxGeometry relative="1" as="geometry" />
        </mxCell>
        <mxCell id="DjGWNIh5ySNA06VgHrhB-70" value="Initialize pyttsx3" style="rhombus;whiteSpace=wrap;html=1;shadow=0;fontFamily=Helvetica;fontSize=12;align=center;strokeWidth=1;spacing=6;spacingTop=-4;" vertex="1" parent="1">
          <mxGeometry x="-1375" y="-410" width="100" height="80" as="geometry" />
        </mxCell>
        <mxCell id="DjGWNIh5ySNA06VgHrhB-72" value="Set DB_FAISS_PATH" style="rhombus;whiteSpace=wrap;html=1;shadow=0;fontFamily=Helvetica;fontSize=12;align=center;strokeWidth=1;spacing=6;spacingTop=-4;" vertex="1" parent="1">
          <mxGeometry x="-1040" y="-416" width="110" height="92" as="geometry" />
        </mxCell>
        <mxCell id="DjGWNIh5ySNA06VgHrhB-73" value="Create Document " style="rhombus;whiteSpace=wrap;html=1;shadow=0;fontFamily=Helvetica;fontSize=12;align=center;strokeWidth=1;spacing=6;spacingTop=-4;" vertex="1" parent="1">
          <mxGeometry x="-1030" y="-275" width="100" height="80" as="geometry" />
        </mxCell>
        <mxCell id="DjGWNIh5ySNA06VgHrhB-74" value="Read Text from File&amp;nbsp;" style="shape=parallelogram;perimeter=parallelogramPerimeter;whiteSpace=wrap;html=1;fixedSize=1;" vertex="1" parent="1">
          <mxGeometry x="-1390" y="-270" width="130" height="70" as="geometry" />
        </mxCell>
        <mxCell id="DjGWNIh5ySNA06VgHrhB-76" value="Initialize LLM  " style="rounded=0;whiteSpace=wrap;html=1;" vertex="1" parent="1">
          <mxGeometry x="-1380" y="-60" width="120" height="60" as="geometry" />
        </mxCell>
        <mxCell id="DjGWNIh5ySNA06VgHrhB-78" style="edgeStyle=orthogonalEdgeStyle;rounded=0;orthogonalLoop=1;jettySize=auto;html=1;entryX=0.5;entryY=0;entryDx=0;entryDy=0;" edge="1" parent="1" source="DjGWNIh5ySNA06VgHrhB-79" target="DjGWNIh5ySNA06VgHrhB-82">
          <mxGeometry relative="1" as="geometry" />
        </mxCell>
        <mxCell id="DjGWNIh5ySNA06VgHrhB-79" value="Get Voice Input" style="shape=parallelogram;perimeter=parallelogramPerimeter;whiteSpace=wrap;html=1;fixedSize=1;" vertex="1" parent="1">
          <mxGeometry x="-1380" y="40" width="120" height="60" as="geometry" />
        </mxCell>
        <mxCell id="DjGWNIh5ySNA06VgHrhB-80" style="edgeStyle=orthogonalEdgeStyle;rounded=0;orthogonalLoop=1;jettySize=auto;html=1;entryX=1;entryY=0.5;entryDx=0;entryDy=0;" edge="1" parent="1" source="DjGWNIh5ySNA06VgHrhB-82" target="DjGWNIh5ySNA06VgHrhB-85">
          <mxGeometry relative="1" as="geometry" />
        </mxCell>
        <mxCell id="DjGWNIh5ySNA06VgHrhB-81" style="edgeStyle=orthogonalEdgeStyle;rounded=0;orthogonalLoop=1;jettySize=auto;html=1;entryX=0.5;entryY=0;entryDx=0;entryDy=0;" edge="1" parent="1" source="DjGWNIh5ySNA06VgHrhB-82" target="DjGWNIh5ySNA06VgHrhB-87">
          <mxGeometry relative="1" as="geometry" />
        </mxCell>
        <mxCell id="DjGWNIh5ySNA06VgHrhB-82" value="Voice Recognized? " style="rhombus;whiteSpace=wrap;html=1;shadow=0;fontFamily=Helvetica;fontSize=12;align=center;strokeWidth=1;spacing=6;spacingTop=-4;" vertex="1" parent="1">
          <mxGeometry x="-1370" y="136" width="100" height="80" as="geometry" />
        </mxCell>
        <mxCell id="DjGWNIh5ySNA06VgHrhB-83" value="No" style="text;html=1;align=center;verticalAlign=middle;resizable=0;points=[];autosize=1;strokeColor=none;fillColor=none;" vertex="1" parent="1">
          <mxGeometry x="-1430" y="140" width="40" height="30" as="geometry" />
        </mxCell>
        <mxCell id="DjGWNIh5ySNA06VgHrhB-84" value="yes" style="text;html=1;align=center;verticalAlign=middle;resizable=0;points=[];autosize=1;strokeColor=none;fillColor=none;" vertex="1" parent="1">
          <mxGeometry x="-1310" y="220" width="40" height="30" as="geometry" />
        </mxCell>
        <mxCell id="DjGWNIh5ySNA06VgHrhB-85" value="Default Response    " style="rounded=0;whiteSpace=wrap;html=1;" vertex="1" parent="1">
          <mxGeometry x="-1600" y="140" width="120" height="72" as="geometry" />
        </mxCell>
        <mxCell id="DjGWNIh5ySNA06VgHrhB-86" style="edgeStyle=orthogonalEdgeStyle;rounded=0;orthogonalLoop=1;jettySize=auto;html=1;exitX=0.5;exitY=1;exitDx=0;exitDy=0;entryX=0.5;entryY=0;entryDx=0;entryDy=0;" edge="1" parent="1" source="DjGWNIh5ySNA06VgHrhB-87" target="DjGWNIh5ySNA06VgHrhB-89">
          <mxGeometry relative="1" as="geometry" />
        </mxCell>
        <mxCell id="DjGWNIh5ySNA06VgHrhB-87" value="Search Context/Generate Response&amp;nbsp;" style="whiteSpace=wrap;html=1;" vertex="1" parent="1">
          <mxGeometry x="-1380" y="260" width="120" height="60" as="geometry" />
        </mxCell>
        <mxCell id="DjGWNIh5ySNA06VgHrhB-88" style="edgeStyle=orthogonalEdgeStyle;rounded=0;orthogonalLoop=1;jettySize=auto;html=1;entryX=0.5;entryY=0;entryDx=0;entryDy=0;" edge="1" parent="1" source="DjGWNIh5ySNA06VgHrhB-89" target="DjGWNIh5ySNA06VgHrhB-90">
          <mxGeometry relative="1" as="geometry" />
        </mxCell>
        <mxCell id="DjGWNIh5ySNA06VgHrhB-89" value="Speak Response" style="whiteSpace=wrap;html=1;" vertex="1" parent="1">
          <mxGeometry x="-1380" y="370" width="120" height="50" as="geometry" />
        </mxCell>
        <mxCell id="DjGWNIh5ySNA06VgHrhB-90" value="End" style="rounded=1;whiteSpace=wrap;html=1;" vertex="1" parent="1">
          <mxGeometry x="-1380" y="490" width="120" height="60" as="geometry" />
        </mxCell>
        <mxCell id="DjGWNIh5ySNA06VgHrhB-91" style="edgeStyle=orthogonalEdgeStyle;rounded=0;orthogonalLoop=1;jettySize=auto;html=1;entryX=0.462;entryY=0.095;entryDx=0;entryDy=0;entryPerimeter=0;" edge="1" parent="1" source="DjGWNIh5ySNA06VgHrhB-72" target="DjGWNIh5ySNA06VgHrhB-73">
          <mxGeometry relative="1" as="geometry" />
        </mxCell>
        <mxCell id="DjGWNIh5ySNA06VgHrhB-94" value="" style="endArrow=none;html=1;rounded=0;" edge="1" parent="1">
          <mxGeometry width="50" height="50" relative="1" as="geometry">
            <mxPoint x="-981" y="-30" as="sourcePoint" />
            <mxPoint x="-980.56" y="-190" as="targetPoint" />
          </mxGeometry>
        </mxCell>
        <mxCell id="DjGWNIh5ySNA06VgHrhB-95" value="" style="endArrow=none;html=1;rounded=0;entryX=0.5;entryY=1;entryDx=0;entryDy=0;" edge="1" parent="1" target="DjGWNIh5ySNA06VgHrhB-85">
          <mxGeometry width="50" height="50" relative="1" as="geometry">
            <mxPoint x="-1540" y="400" as="sourcePoint" />
            <mxPoint x="-1240" y="300" as="targetPoint" />
          </mxGeometry>
        </mxCell>
        <mxCell id="DjGWNIh5ySNA06VgHrhB-96" value="" style="endArrow=classic;html=1;rounded=0;entryX=0;entryY=0.5;entryDx=0;entryDy=0;" edge="1" parent="1" target="DjGWNIh5ySNA06VgHrhB-89">
          <mxGeometry width="50" height="50" relative="1" as="geometry">
            <mxPoint x="-1540" y="400" as="sourcePoint" />
            <mxPoint x="-1240" y="300" as="targetPoint" />
          </mxGeometry>
        </mxCell>
        <mxCell id="DjGWNIh5ySNA06VgHrhB-97" value="" style="edgeStyle=orthogonalEdgeStyle;rounded=0;orthogonalLoop=1;jettySize=auto;html=1;exitX=1;exitY=0.5;exitDx=0;exitDy=0;" edge="1" parent="1" source="DjGWNIh5ySNA06VgHrhB-70">
          <mxGeometry relative="1" as="geometry">
            <mxPoint x="-1270" y="-370" as="sourcePoint" />
            <mxPoint x="-1200" y="-370" as="targetPoint" />
          </mxGeometry>
        </mxCell>
        <mxCell id="DjGWNIh5ySNA06VgHrhB-99" value="" style="endArrow=classic;html=1;rounded=0;exitX=0.5;exitY=1;exitDx=0;exitDy=0;entryX=0.5;entryY=0;entryDx=0;entryDy=0;" edge="1" parent="1" source="DjGWNIh5ySNA06VgHrhB-74" target="DjGWNIh5ySNA06VgHrhB-76">
          <mxGeometry width="50" height="50" relative="1" as="geometry">
            <mxPoint x="-1210" y="-40" as="sourcePoint" />
            <mxPoint x="-1160" y="-90" as="targetPoint" />
          </mxGeometry>
        </mxCell>
        <mxCell id="DjGWNIh5ySNA06VgHrhB-100" value="" style="endArrow=classic;html=1;rounded=0;exitX=0.5;exitY=1;exitDx=0;exitDy=0;entryX=0.5;entryY=0;entryDx=0;entryDy=0;" edge="1" parent="1" source="DjGWNIh5ySNA06VgHrhB-76" target="DjGWNIh5ySNA06VgHrhB-79">
          <mxGeometry width="50" height="50" relative="1" as="geometry">
            <mxPoint x="-1210" y="-40" as="sourcePoint" />
            <mxPoint x="-1160" y="-90" as="targetPoint" />
          </mxGeometry>
        </mxCell>
        <mxCell id="DjGWNIh5ySNA06VgHrhB-101" value="Data Base" style="swimlane;fontStyle=0;align=center;verticalAlign=top;childLayout=stackLayout;horizontal=1;startSize=26;horizontalStack=0;resizeParent=1;resizeLast=0;collapsible=1;marginBottom=0;rounded=0;shadow=0;strokeWidth=1;" vertex="1" parent="1">
          <mxGeometry x="-1040" y="-1050" width="200" height="210" as="geometry">
            <mxRectangle x="550" y="140" width="160" height="26" as="alternateBounds" />
          </mxGeometry>
        </mxCell>
        <mxCell id="DjGWNIh5ySNA06VgHrhB-102" value="User info and profile" style="text;align=left;verticalAlign=top;spacingLeft=4;spacingRight=4;overflow=hidden;rotatable=0;points=[[0,0.5],[1,0.5]];portConstraint=eastwest;" vertex="1" parent="DjGWNIh5ySNA06VgHrhB-101">
          <mxGeometry y="26" width="200" height="26" as="geometry" />
        </mxCell>
        <mxCell id="DjGWNIh5ySNA06VgHrhB-103" value="Mined data" style="text;align=left;verticalAlign=top;spacingLeft=4;spacingRight=4;overflow=hidden;rotatable=0;points=[[0,0.5],[1,0.5]];portConstraint=eastwest;rounded=0;shadow=0;html=0;" vertex="1" parent="DjGWNIh5ySNA06VgHrhB-101">
          <mxGeometry y="52" width="200" height="26" as="geometry" />
        </mxCell>
        <mxCell id="DjGWNIh5ySNA06VgHrhB-104" value="LeadsÂ " style="text;align=left;verticalAlign=top;spacingLeft=4;spacingRight=4;overflow=hidden;rotatable=0;points=[[0,0.5],[1,0.5]];portConstraint=eastwest;rounded=0;shadow=0;html=0;" vertex="1" parent="DjGWNIh5ySNA06VgHrhB-101">
          <mxGeometry y="78" width="200" height="26" as="geometry" />
        </mxCell>
        <mxCell id="DjGWNIh5ySNA06VgHrhB-105" value="Opportunities" style="text;align=left;verticalAlign=top;spacingLeft=4;spacingRight=4;overflow=hidden;rotatable=0;points=[[0,0.5],[1,0.5]];portConstraint=eastwest;rounded=0;shadow=0;html=0;" vertex="1" parent="DjGWNIh5ySNA06VgHrhB-101">
          <mxGeometry y="104" width="200" height="26" as="geometry" />
        </mxCell>
        <mxCell id="DjGWNIh5ySNA06VgHrhB-106" value="Quotes" style="text;align=left;verticalAlign=top;spacingLeft=4;spacingRight=4;overflow=hidden;rotatable=0;points=[[0,0.5],[1,0.5]];portConstraint=eastwest;rounded=0;shadow=0;html=0;" vertex="1" parent="DjGWNIh5ySNA06VgHrhB-101">
          <mxGeometry y="130" width="200" height="26" as="geometry" />
        </mxCell>
        <mxCell id="DjGWNIh5ySNA06VgHrhB-107" value="Calendars" style="text;align=left;verticalAlign=top;spacingLeft=4;spacingRight=4;overflow=hidden;rotatable=0;points=[[0,0.5],[1,0.5]];portConstraint=eastwest;rounded=0;shadow=0;html=0;" vertex="1" parent="DjGWNIh5ySNA06VgHrhB-101">
          <mxGeometry y="156" width="200" height="26" as="geometry" />
        </mxCell>
        <mxCell id="DjGWNIh5ySNA06VgHrhB-108" value="calls and meeting recordings" style="text;align=left;verticalAlign=top;spacingLeft=4;spacingRight=4;overflow=hidden;rotatable=0;points=[[0,0.5],[1,0.5]];portConstraint=eastwest;rounded=0;shadow=0;html=0;" vertex="1" parent="DjGWNIh5ySNA06VgHrhB-101">
          <mxGeometry y="182" width="200" height="26" as="geometry" />
        </mxCell>
        <mxCell id="DjGWNIh5ySNA06VgHrhB-109" value="" style="endArrow=classic;html=1;rounded=0;entryX=1;entryY=0.5;entryDx=0;entryDy=0;" edge="1" parent="1" target="DjGWNIh5ySNA06VgHrhB-76">
          <mxGeometry width="50" height="50" relative="1" as="geometry">
            <mxPoint x="-980" y="-30" as="sourcePoint" />
            <mxPoint x="-1160" y="-30" as="targetPoint" />
          </mxGeometry>
        </mxCell>
        <mxCell id="DjGWNIh5ySNA06VgHrhB-111" value="yes" style="text;html=1;align=center;verticalAlign=middle;resizable=0;points=[];autosize=1;strokeColor=none;fillColor=none;rotation=-90;" vertex="1" parent="1">
          <mxGeometry x="-1370" y="-322" width="40" height="30" as="geometry" />
        </mxCell>
        <mxCell id="DjGWNIh5ySNA06VgHrhB-112" value="No" style="text;html=1;align=center;verticalAlign=middle;resizable=0;points=[];autosize=1;strokeColor=none;fillColor=none;" vertex="1" parent="1">
          <mxGeometry x="-1260" y="-410" width="40" height="30" as="geometry" />
        </mxCell>
      </root>
    </mxGraphModel>
  </diagram>
</mxfile>
